<?xml version="1.0" encoding="utf-8"?>
<!-- Generator: Adobe Illustrator 18.0.0, SVG Export Plug-In . SVG Version: 6.00 Build 0)  -->
<!DOCTYPE svg PUBLIC "-//W3C//DTD SVG 1.1//EN" "http://www.w3.org/Graphics/SVG/1.1/DTD/svg11.dtd">
<svg version="1.1" id="Layer_1" xmlns="http://www.w3.org/2000/svg" xmlns:xlink="http://www.w3.org/1999/xlink" x="0px" y="0px"
	 viewBox="0 1050.8 3456 2209" enable-background="new 0 1050.8 3456 2209" xml:space="preserve">
<g>
	<path fill="#5E0D8B" d="M2391.6,1954.4c0,21.6-13.8,40.6-39.7,40.6c-28.5,0-38.9-20.7-38.9-39.7c0-22.5,14.7-40.6,39.7-40.6
		C2377.7,1914.6,2391.6,1932.8,2391.6,1954.4z M2331.9,1953.5c0,19.9,9.5,30.2,21.6,30.2c13,0,19.9-11.2,19.9-28.5
		c0-16.4-7.8-29.4-22.5-29.4C2340.6,1925.9,2331.9,1934.5,2331.9,1953.5z"/>
	<path fill="#5E0D8B" d="M2447.7,1980.3c0,4.3-1.7,8.6-4.3,11.2c-3.5,2.6-8.6,3.5-13.8,3.5c-17.3,0-28.5-10.4-28.5-26.8
		c0-18.1,13-29.4,30.2-29.4c8.6,0,13.8,2.6,16.4,4.3c0,3.5-1.7,8.6-6,8.6c-2.6-0.9-6-1.7-9.5-1.7c-7.8,0-14.7,5.2-14.7,15.6
		c0,12.1,7.8,17.3,16.4,17.3C2439.9,1982,2444.3,1981.2,2447.7,1980.3L2447.7,1980.3z"/>
	<path fill="#5E0D8B" d="M2500.4,1980.3c0,4.3-1.7,8.6-4.3,11.2c-3.5,2.6-8.6,3.5-13.8,3.5c-17.3,0-28.5-10.4-28.5-26.8
		c0-18.1,13-29.4,30.2-29.4c8.6,0,13.8,2.6,16.4,4.3c0,3.5-1.7,8.6-6,8.6c-2.6-0.9-6-1.7-9.5-1.7c-7.8,0-14.7,5.2-14.7,15.6
		c0,12.1,7.8,17.3,16.4,17.3C2492.6,1982,2497,1981.2,2500.4,1980.3L2500.4,1980.3z"/>
	<path fill="#5E0D8B" d="M2509.1,1953.5c0-7.8,0-11.2-0.9-13.8c2.6-0.9,11.2-1.7,14.7-1.7c1.7,0,2.6,0.9,2.6,7.8
		c0,7.8,0,17.3,0,25.9c0,7.8,5.2,9.5,8.6,9.5c3.5,0,5.2-0.9,7.8-2.6V1944c0-3.5,0-4.3,2.6-5.2c6-0.9,9.5-0.9,14.7-0.9
		c0,2.6,0,11.2,0,21.6v18.1c0,4.3,1.7,6,4.3,6v0.9c-0.9,4.3-4.3,8.6-7.8,8.6c-6.9,0-9.5-3.5-11.2-7.8c-2.6,2.6-6,4.3-8.6,6
		c-2.6,0.9-4.3,1.7-7.8,1.7c-13,0-19-8.6-19-20.7V1953.5z"/>
	<path fill="#5E0D8B" d="M2592.9,2014c0,2.6,0,3.5-2.6,3.5c-5.2,0.9-9.5,0.9-14.7,0.9c0-5.2,0-12.1,0-19v-48.4c0-2.6-0.9-5.2-2.6-6
		v-0.9c1.7-3.5,5.2-6.9,10.4-6.9c5.2,0,6.9,4.3,7.8,6.9c6-4.3,11.2-6.9,16.4-6.9c13.8,0,21.6,11.2,21.6,25.9
		c0,19-13.8,31.1-29.4,31.1c-3.5,0-6-0.9-7.8-1.7v21.6H2592.9z M2592.9,1982.9c1.7,0.9,3.5,0.9,5.2,0.9c7.8,0,14.7-6,14.7-18.1
		c0-8.6-4.3-15.6-11.2-15.6c-3.5,0-6,0.9-7.8,2.6v30.2H2592.9z"/>
	<path fill="#5E0D8B" d="M2688.8,1982.9c0,6.9-3.5,12.1-11.2,12.1c-5.2,0-8.6-2.6-10.4-6c-3.5,3.5-7.8,6-13.8,6
		c-7.8,0-15.6-6-15.6-15.6c0-12.1,13-15.6,23.3-17.3c2.6-0.9,5.2-0.9,6-0.9v-1.7c0-4.3-3.5-8.6-8.6-8.6c-4.3,0-8.6,1.7-10.4,3.5
		c-6,1.7-7.8-3.5-7.8-7.8c6-4.3,14.7-7.8,22.5-7.8c10.4,0,20.7,6.9,20.7,20.7c0,5.2-0.9,13-0.9,21.6c0,0.9,1.7,2.6,4.3,2.6
		C2687,1982,2687.9,1982,2688.8,1982.9L2688.8,1982.9z M2660.3,1982.9c2.6,0,3.5-0.9,5.2-1.7c0.9-0.9,0.9-1.7,0.9-4.3v-8.6
		c-11.2,0.9-13,5.2-13,7.8C2653.3,1980.3,2655.9,1982.9,2660.3,1982.9z"/>
	<path fill="#5E0D8B" d="M2732,1981.2c0.9,3.5,0,7.8-2.6,9.5c-3.5,2.6-8.6,4.3-13.8,4.3c-13,0-17.3-8.6-17.3-16.4v-27.6
		c-4.3,0-7.8-2.6-7.8-3.5c1.7-4.3,13-13.8,15.6-15.6c2.6-1.7,5.2-3.5,10.4-4.3c0,3.5-0.9,8.6-0.9,12.1h17.3
		c-1.7,9.5-4.3,9.5-6.9,10.4c-1.7,0-7.8,0.9-11.2,0.9c-0.9,8.6,0,19.9,0,25.1c0.9,5.2,3.5,7.8,7.8,7.8
		C2727.6,1982.9,2731.1,1981.2,2732,1981.2L2732,1981.2z"/>
	<path fill="#5E0D8B" d="M2757.9,1989.8c0,2.6-0.9,2.6-4.3,3.5c-2.6,0-7.8,0.9-13,0.9c0-5.2,0-12.1,0-19v-20.7
		c0-7.8,0-11.2-0.9-13.8c3.5-0.9,12.1-1.7,14.7-1.7c1.7,0,2.6,0.9,2.6,7.8v43.2H2757.9z M2758.8,1920.7c0,5.2-3.5,9.5-8.6,9.5
		c-4.3,0-8.6-2.6-8.6-8.6c0-6.9,6-9.5,9.5-9.5C2755.3,1912,2758.8,1915.5,2758.8,1920.7z"/>
	<path fill="#5E0D8B" d="M2825.3,1964.7c0,17.3-11.2,29.4-28.5,29.4c-14.7,0-26.8-9.5-26.8-27.6c0-16.4,12.1-28.5,28.5-28.5
		C2815.8,1938,2825.3,1950,2825.3,1964.7z M2786.4,1964.7c0,13.8,5.2,19.9,11.2,19.9c7.8,0,9.5-7.8,9.5-17.3s-3.5-19-11.2-19
		C2789,1947.5,2786.4,1955.2,2786.4,1964.7z"/>
	<path fill="#5E0D8B" d="M2870.2,1959.6c0-6-3.5-9.5-7.8-9.5s-6,1.7-8.6,3.5v36.3c0,1.7,0,2.6-2.6,3.5c-5.2,0.9-9.5,0.9-14.7,0.9
		c0-7.8,0-14.7,0-21.6v-19.9c0-3.5,0-5.2-2.6-6v-0.9c0.9-3.5,6-6.9,10.4-6.9c5.2,0,6.9,3.5,7.8,7.8c5.2-4.3,10.4-7.8,16.4-7.8
		c16.4,0,18.1,13.8,18.1,22.5v13c0,6,0,13,0.9,18.1c-2.6,0-8.6,0.9-14.7,0.9c-1.7,0-2.6-0.9-2.6-2.6L2870.2,1959.6L2870.2,1959.6z"
		/>
	<path fill="#5E0D8B" d="M2948.8,1982.9c0,6.9-3.5,12.1-11.2,12.1c-5.2,0-8.6-2.6-10.4-6c-3.5,3.5-7.8,6-13.8,6
		c-7.8,0-15.6-6-15.6-15.6c0-12.1,13-15.6,23.3-17.3c2.6-0.9,5.2-0.9,6-0.9v-1.7c0-4.3-3.5-8.6-8.6-8.6c-4.3,0-8.6,1.7-10.4,3.5
		c-6,1.7-7.8-3.5-7.8-7.8c6-4.3,14.7-7.8,22.5-7.8c10.4,0,20.7,6.9,20.7,20.7c0,5.2-0.9,13-0.9,20.7c0,0.9,1.7,2.6,4.3,2.6
		C2947.1,1982,2948,1982,2948.8,1982.9L2948.8,1982.9z M2920.3,1982.9c2.6,0,3.5-0.9,5.2-1.7c0.9-0.9,0.9-1.7,0.9-4.3v-8.6
		c-11.2,0.9-13,5.2-13,7.8C2913.4,1980.3,2916,1982.9,2920.3,1982.9z"/>
	<path fill="#5E0D8B" d="M2958.3,1925.9c0-6.9,0-10.4-0.9-12.1c2.6-0.9,12.1-2.6,14.7-2.6c1.7,0,2.6,0.9,2.6,7.8v58.8
		c0,6,0,13,0.9,16.4c-2.6,0.9-13.8,0.9-15.6,0.9c-0.9,0-1.7,0-1.7-1.7V1925.9z"/>
	<path fill="#5E0D8B" d="M3091.4,1944c4.3-4.3,10.4-6.9,16.4-6.9c10.4,0,17.3,7.8,17.3,20.7v16.4c0,5.2,0,13,0,17.3
		c-2.6,0-8.6,0.9-14.7,0.9c-1.7,0-2.6-0.9-2.6-2.6c0-6,0-20.7,0-32c0-5.2-3.5-9.5-8.6-9.5c-2.6,0-6,0.9-8.6,3.5v36.3
		c0,2.6,0,3.5-2.6,3.5c-5.2,0.9-8.6,0.9-14.7,0.9c0-7.8,0-14.7,0-21.6v-43.2h-22.5v49.2c0,8.6,0,12.1,0,14.7
		c-3.5,0.9-8.6,0.9-14.7,0.9c-1.7,0-2.6,0-2.6-2.6v-63.1H3011c-1.7,0-3.5-0.9-2.6-4.3c1.7-4.3,3.5-6,4.3-7.8c1.7,0.9,6,0.9,18.1,0.9
		h42.3c0-1.7,0-2.6,0-4.3c2.6-0.9,12.1-2.6,14.7-2.6c1.7,0,2.6,0.9,2.6,7.8v27.6H3091.4z"/>
	<path fill="#5E0D8B" d="M3182.1,1979.4c0,6-5.2,12.1-6.9,13c-1.7,0.9-6.9,1.7-11.2,1.7c-18.1,0-28.5-9.5-28.5-27.6
		c0-14.7,9.5-28.5,26.8-28.5c16.4,0,21.6,11.2,21.6,21.6c0,1.7,0,3.5,0,4.3c-0.9,1.7-4.3,3.5-10.4,5.2c-2.6,0.9-15.6,0.9-21.6,0.9
		c0.9,9.5,8.6,13,15.6,13C3174.3,1982,3180.4,1980.3,3182.1,1979.4L3182.1,1979.4z M3152.7,1959.6c3.5,0,12.1,0,14.7,0
		c0.9,0,0.9-1.7,0.9-2.6c0-5.2-2.6-10.4-7.8-10.4C3157.1,1947.5,3152.7,1950.9,3152.7,1959.6z"/>
	<path fill="#5E0D8B" d="M3192.5,1944.9c0.9-3.5,6-6.9,10.4-6.9c6,0,8.6,5.2,8.6,13c3.5-8.6,8.6-13,15.6-13c2.6,0,6,1.7,6.9,2.6
		c0,2.6-0.9,8.6-3.5,12.1c-0.9,1.7-2.6,2.6-4.3,1.7c-1.7-0.9-3.5-0.9-5.2-0.9s-5.2,0.9-6.9,6c-0.9,1.7-0.9,3.5-0.9,6v25.1
		c0,1.7,0,3.5-2.6,3.5c-5.2,0.9-8.6,0.9-14.7,0.9c0-7.8,0-14.7,0-21.6v-20.7C3195.1,1948.3,3194.2,1946.6,3192.5,1944.9
		L3192.5,1944.9z"/>
	<path fill="#5E0D8B" d="M3287.5,1982.9c0,6.9-3.5,12.1-11.2,12.1c-5.2,0-8.6-2.6-10.4-6c-3.5,3.5-7.8,6-13.8,6
		c-7.8,0-15.6-6-15.6-15.6c0-12.1,13-15.6,23.3-17.3c2.6-0.9,5.2-0.9,6-0.9v-1.7c0-4.3-3.5-8.6-8.6-8.6c-4.3,0-8.6,1.7-10.4,3.5
		c-6,1.7-7.8-3.5-7.8-7.8c6-4.3,14.7-7.8,22.5-7.8c10.4,0,20.7,6.9,20.7,20.7c0,5.2-0.9,13-0.9,20.7c0,0.9,1.7,2.6,4.3,2.6
		C3285.8,1982,3286.7,1982,3287.5,1982.9L3287.5,1982.9z M3259,1982.9c2.6,0,3.5-0.9,5.2-1.7c0.9-0.9,0.9-1.7,0.9-4.3v-8.6
		c-11.2,0.9-13,5.2-13,7.8C3252.1,1980.3,3254.7,1982.9,3259,1982.9z"/>
	<path fill="#5E0D8B" d="M3315.2,2014c0,2.6,0,3.5-2.6,3.5c-5.2,0.9-9.5,0.9-14.7,0.9c0-5.2,0-12.1,0-19v-48.4c0-2.6-0.9-5.2-2.6-6
		v-0.9c1.7-3.5,5.2-6.9,10.4-6.9s6.9,4.3,7.8,6.9c6-4.3,11.2-6.9,16.4-6.9c13.8,0,21.6,11.2,21.6,25.9c0,19-13.8,31.1-29.4,31.1
		c-3.5,0-6-0.9-7.8-1.7v21.6H3315.2z M3315.2,1982.9c1.7,0.9,3.5,0.9,5.2,0.9c7.8,0,14.7-6,14.7-18.1c0-8.6-4.3-15.6-11.2-15.6
		c-3.5,0-6,0.9-7.8,2.6v30.2H3315.2z"/>
	<path fill="#5E0D8B" d="M3361.8,2011.4c3.5-3.5,11.2-13.8,14.7-21.6c-0.9-0.9-1.7-3.5-2.6-5.2c-2.6-6-13-34.6-17.3-43.2
		c4.3-1.7,11.2-3.5,13.8-3.5c2.6,0,3.5,1.7,4.3,4.3c3.5,7.8,7.8,22.5,10.4,32c4.3-11.2,8.6-27.6,10.4-35.4c2.6,0,6,0.9,9.5,1.7
		c3.5,0.9,3.5,2.6,3.5,5.2c-3.5,13.8-8.6,29.4-15.6,44.1c-7.8,15.6-16.4,28.5-19.9,28.5C3367.9,2017.4,3363.6,2014,3361.8,2011.4
		L3361.8,2011.4z"/>
	<path fill="#5E0D8B" d="M2317.2,2080.5c0-6,0-11.2-0.9-16.4c3.5-0.9,12.1-1.7,20.7-1.7c19,0,32.8,6,32.8,25.1
		c0,18.1-15.6,24.2-23.3,24.2c-1.7,0-4.3,0-6-0.9s-4.3-5.2-4.3-9.5c0.9,0,1.7,0,2.6,0c6,0,13-3.5,13-14.7c0-10.4-6-13.8-13.8-13.8
		c-0.9,0-2.6,0-4.3,0v51c0,8.6,0,12.1,0,14.7c-1.7,0.9-11.2,0.9-14.7,0.9c-1.7,0-2.6,0-2.6-2.6v-56.2H2317.2z"/>
	<path fill="#5E0D8B" d="M2395.9,2090c5.2-4.3,9.5-6.9,16.4-6.9c10.4,0,17.3,7.8,17.3,21.6v16.4c0,5.2,0,13,0,17.3
		c-2.6,0-8.6,0.9-14.7,0.9c-1.7,0-2.6-0.9-2.6-2.6c0-6,0-20.7,0-31.1c0-5.2-3.5-9.5-8.6-9.5c-2.6,0-6,0.9-8.6,3.5v36.3
		c0,2.6,0,3.5-2.6,3.5c-5.2,0.9-8.6,0.9-14.7,0.9c0-7.8,0-14.7,0-21.6v-45.8c0-6.9,0-10.4-0.9-13c2.6-0.9,12.1-2.6,14.7-2.6
		c1.7,0,2.6,0.9,2.6,7.8v25.1H2395.9z"/>
	<path fill="#5E0D8B" d="M2443.4,2157.4c3.5-3.5,11.2-13.8,14.7-21.6c-0.9-0.9-1.7-3.5-2.6-5.2c-2.6-6-13-34.6-17.3-43.2
		c4.3-1.7,11.2-3.5,13.8-3.5c2.6,0,3.5,1.7,4.3,4.3c3.5,7.8,7.8,22.5,10.4,32c4.3-11.2,8.6-27.6,10.4-35.4c2.6,0,6,0.9,9.5,1.7
		c3.5,0.9,3.5,2.6,3.5,5.2c-3.5,13.8-8.6,29.4-15.6,44.1c-7.8,15.6-16.4,28.5-19.9,28.5C2449.4,2163.5,2444.3,2160,2443.4,2157.4
		L2443.4,2157.4z"/>
	<path fill="#5E0D8B" d="M2530.7,2088.3c0,3.5-1.7,8.6-6,8.6c-2.6-0.9-5.2-1.7-7.8-1.7c-3.5,0-5.2,1.7-5.2,4.3
		c0,1.7,1.7,3.5,4.3,4.3c1.7,0.9,6.9,3.5,9.5,5.2c6,3.5,8.6,8.6,8.6,13.8c0,12.1-11.2,18.1-22.5,18.1c-4.3,0-9.5-0.9-13-3.5
		c-1.7-0.9-3.5-2.6-3.5-4.3c0-2.6,1.7-6,3.5-7.8c3.5,2.6,8.6,4.3,13.8,4.3c3.5,0,6-1.7,6-4.3c0-1.7-0.9-3.5-4.3-5.2
		c-2.6-1.7-6-3.5-9.5-5.2c-5.2-2.6-8.6-7.8-8.6-13.8c0-11.2,9.5-17.3,20.7-17.3C2521.2,2084,2525.5,2084.8,2530.7,2088.3z"/>
	<path fill="#5E0D8B" d="M2560,2135.8c0,2.6-0.9,2.6-4.3,3.5c-2.6,0-7.8,0.9-13,0.9c0-5.2,0-12.1,0-19v-20.7c0-7.8,0-11.2-0.9-13.8
		c3.5-0.9,12.1-1.7,14.7-1.7c1.7,0,2.6,0.9,2.6,7.8v43.2H2560z M2560,2066.7c0,5.2-3.5,9.5-8.6,9.5c-4.3,0-8.6-2.6-8.6-8.6
		c0-6.9,6-9.5,9.5-9.5C2557.4,2058,2560,2061.5,2560,2066.7z"/>
	<path fill="#5E0D8B" d="M2617.9,2126.3c0,4.3-1.7,8.6-4.3,11.2c-3.5,2.6-8.6,3.5-13.8,3.5c-17.3,0-28.5-10.4-28.5-26.8
		c0-18.1,13-29.4,30.2-29.4c8.6,0,13.8,2.6,16.4,4.3c0,3.5-1.7,8.6-6,8.6c-2.6-0.9-6-1.7-9.5-1.7c-7.8,0-14.7,5.2-14.7,15.6
		c0,12.1,7.8,17.3,16.4,17.3C2610.1,2128,2614.5,2127.2,2617.9,2126.3L2617.9,2126.3z"/>
	<path fill="#5E0D8B" d="M2675.8,2128.9c0,6.9-3.5,12.1-11.2,12.1c-5.2,0-8.6-2.6-10.4-6c-3.5,3.5-7.8,6-13.8,6
		c-7.8,0-15.6-6-15.6-15.6c0-12.1,13-15.6,23.3-17.3c2.6-0.9,5.2-0.9,6-0.9v-3.5c0-4.3-3.5-8.6-8.6-8.6c-4.3,0-8.6,1.7-10.4,3.5
		c-6,1.7-7.8-3.5-7.8-7.8c6-4.3,14.7-7.8,22.5-7.8c10.4,0,20.7,6.9,20.7,20.7c0,5.2-0.9,13-0.9,20.7c0,0.9,1.7,2.6,4.3,2.6
		C2674.1,2128,2674.9,2128,2675.8,2128.9L2675.8,2128.9z M2646.4,2128.9c2.6,0,3.5-0.9,5.2-1.7c0.9-0.9,0.9-1.7,0.9-4.3v-8.6
		c-11.2,0.9-13,5.2-13,7.8C2640.4,2126.3,2643,2128.9,2646.4,2128.9z"/>
	<path fill="#5E0D8B" d="M2685.3,2071.9c0-6.9,0-10.4-0.9-12.1c2.6-0.9,12.1-2.6,14.7-2.6c1.7,0,2.6,0.9,2.6,7.8v58.8
		c0,6,0,12.1,0.9,16.4c-2.6,0.9-13.8,0.9-15.6,0.9c-0.9,0-1.7,0-1.7-1.7V2071.9z"/>
	<path fill="#5E0D8B" d="M2818.4,2090c4.3-4.3,10.4-6.9,16.4-6.9c10.4,0,17.3,7.8,17.3,20.7v17.3c0,5.2,0,13,0,17.3
		c-2.6,0-8.6,0.9-14.7,0.9c-1.7,0-2.6-0.9-2.6-2.6c0-6,0-20.7,0-32c0-5.2-3.5-9.5-8.6-9.5c-2.6,0-6,0.9-8.6,3.5v36.3
		c0,2.6,0,3.5-2.6,3.5c-5.2,0.9-8.6,0.9-14.7,0.9c0-7.8,0-14.7,0-21.6v-43.2h-22.5v49.2c0,8.6,0,12.1,0,14.7
		c-3.5,0.9-8.6,0.9-14.7,0.9c-1.7,0-2.6,0-2.6-2.6v-63.1h-21.6c-1.7,0-3.5-0.9-2.6-4.3c1.7-4.3,3.5-6,4.3-7.8
		c1.7,0.9,6,0.9,18.1,0.9h42.3c0-1.7,0-2.6,0-4.3c2.6-0.9,12.1-2.6,14.7-2.6c1.7,0,2.6,0.9,2.6,7.8V2090z"/>
	<path fill="#5E0D8B" d="M2909.1,2125.4c0,6-5.2,12.1-6.9,13c-1.7,0.9-6.9,1.7-11.2,1.7c-18.1,0-28.5-9.5-28.5-27.6
		c0-14.7,9.5-28.5,26.8-28.5c16.4,0,21.6,11.2,21.6,21.6c0,1.7,0,3.5,0,4.3c-0.9,1.7-4.3,3.5-10.4,5.2c-2.6,0.9-15.6,0.9-21.6,0.9
		c0.9,9.5,8.6,13,15.6,13C2901.3,2128,2906.5,2126.3,2909.1,2125.4L2909.1,2125.4z M2879.7,2105.6c3.5,0,12.1,0,14.7,0
		c0.9,0,0.9-1.7,0.9-2.6c0-5.2-2.6-10.4-7.8-10.4C2884,2093.5,2879.7,2096.9,2879.7,2105.6z"/>
	<path fill="#5E0D8B" d="M2918.6,2090.9c0.9-3.5,6-6.9,10.4-6.9c6,0,8.6,5.2,8.6,13c3.5-8.6,8.6-13,15.6-13c2.6,0,6,1.7,6.9,2.6
		c0,2.6-0.9,8.6-3.5,12.1c-0.9,1.7-2.6,2.6-4.3,1.7s-3.5-0.9-5.2-0.9s-5.2,0.9-6.9,6c-0.9,1.7-0.9,3.5-0.9,6v25.1
		c0,1.7,0,3.5-2.6,3.5c-5.2,0.9-8.6,0.9-14.7,0.9c0-7.8,0-14.7,0-21.6v-20.7C2922,2094.3,2921.2,2092.6,2918.6,2090.9L2918.6,2090.9
		z"/>
	<path fill="#5E0D8B" d="M3014.5,2128.9c0,6.9-3.5,12.1-11.2,12.1c-5.2,0-8.6-2.6-10.4-6c-3.5,3.5-7.8,6-13.8,6
		c-7.8,0-15.6-6-15.6-15.6c0-12.1,13-15.6,23.3-17.3c2.6-0.9,5.2-0.9,6-0.9v-3.5c0-4.3-3.5-8.6-8.6-8.6c-4.3,0-8.6,1.7-10.4,3.5
		c-6,1.7-7.8-3.5-7.8-7.8c6-4.3,14.7-7.8,22.5-7.8c10.4,0,20.7,6.9,20.7,20.7c0,5.2-0.9,13-0.9,20.7c0,0.9,1.7,2.6,4.3,2.6
		C3012.8,2128,3013.6,2128,3014.5,2128.9L3014.5,2128.9z M2986,2128.9c2.6,0,3.5-0.9,5.2-1.7c0.9-0.9,0.9-1.7,0.9-4.3v-8.6
		c-11.2,0.9-13,5.2-13,7.8C2979.1,2126.3,2981.7,2128.9,2986,2128.9z"/>
	<path fill="#5E0D8B" d="M3041.3,2160c0,2.6,0,3.5-2.6,3.5c-5.2,0.9-9.5,0.9-14.7,0.9c0-5.2,0-12.1,0-19v-48.4c0-2.6-0.9-5.2-2.6-6
		v-0.9c1.7-3.5,5.2-6.9,10.4-6.9s6.9,4.3,7.8,6.9c6-4.3,11.2-6.9,16.4-6.9c13.8,0,21.6,11.2,21.6,25.9c0,19-13.8,31.1-29.4,31.1
		c-3.5,0-6-0.9-7.8-1.7v21.6H3041.3z M3041.3,2128.9c1.7,0.9,3.5,0.9,5.2,0.9c7.8,0,14.7-6,14.7-18.1c0-8.6-4.3-15.6-11.2-15.6
		c-3.5,0-6,0.9-7.8,2.6v30.2H3041.3z"/>
	<path fill="#5E0D8B" d="M3088.8,2157.4c3.5-3.5,11.2-13.8,14.7-21.6c-0.9-0.9-1.7-3.5-2.6-5.2c-2.6-6-13-34.6-17.3-43.2
		c4.3-1.7,11.2-3.5,13.8-3.5s3.5,1.7,4.3,4.3c3.5,7.8,7.8,22.5,10.4,32c4.3-11.2,8.6-27.6,10.4-35.4c2.6,0,6,0.9,9.5,1.7
		c3.5,0.9,3.5,2.6,3.5,5.2c-3.5,13.8-8.6,29.4-15.6,44.1c-7.8,15.6-16.4,28.5-19.9,28.5C3094.8,2163.5,3090.5,2160,3088.8,2157.4
		L3088.8,2157.4z"/>
	<path fill="#5E0D8B" d="M2357.9,2212.7c0,3.5-2.6,9.5-6.9,8.6c-2.6-1.7-7.8-2.6-12.1-2.6c-6,0-10.4,2.6-10.4,6.9
		c0,5.2,4.3,7.8,15.6,14.7c10.4,6,16.4,10.4,16.4,22.5c0,15.6-13.8,24.2-28.5,24.2c-8.6,0-14.7-2.6-18.1-4.3
		c-2.6-1.7-3.5-2.6-3.5-4.3c0-2.6,2.6-7.8,3.5-8.6c4.3,2.6,12.1,6,18.1,6c6.9,0,11.2-2.6,11.2-7.8c0-4.3-1.7-6.9-14.7-13.8
		c-13.8-7.8-17.3-15.6-17.3-23.3c0-8.6,6-22.5,26.8-22.5C2346.6,2206.7,2355.3,2210.1,2357.9,2212.7z"/>
	<path fill="#5E0D8B" d="M2389,2306c0,2.6,0,3.5-2.6,3.5c-5.2,0.9-9.5,0.9-14.7,0.9c0-5.2,0-12.1,0-19v-48.4c0-2.6-0.9-5.2-2.6-6
		v-0.9c1.7-3.5,5.2-6.9,10.4-6.9c5.2,0,6.9,4.3,7.8,6.9c6-4.3,11.2-6.9,16.4-6.9c13.8,0,21.6,11.2,21.6,25.9
		c0,19-13.8,31.1-29.4,31.1c-3.5,0-6-0.9-7.8-1.7v21.6H2389z M2389,2274.9c1.7,0.9,3.5,0.9,5.2,0.9c7.8,0,14.7-6,14.7-18.1
		c0-8.6-4.3-15.6-11.2-15.6c-3.5,0-6,0.9-7.8,2.6v30.2H2389z"/>
	<path fill="#5E0D8B" d="M2481.4,2271.5c0,6-5.2,12.1-6.9,13s-6.9,1.7-11.2,1.7c-18.1,0-28.5-9.5-28.5-27.6
		c0-14.7,9.5-28.5,26.8-28.5c16.4,0,21.6,11.2,21.6,21.6c0,1.7,0,3.5,0,4.3c-0.9,1.7-4.3,3.5-10.4,5.2c-2.6,0.9-15.6,0.9-21.6,0.9
		c0.9,9.5,8.6,13,15.6,13C2473.6,2274,2479.7,2272.3,2481.4,2271.5L2481.4,2271.5z M2452,2251.6c3.5,0,12.1,0,14.7,0
		c0.9,0,0.9-1.7,0.9-2.6c0-5.2-2.6-10.4-7.8-10.4C2456.4,2239.5,2452,2242.9,2452,2251.6z"/>
	<path fill="#5E0D8B" d="M2537.6,2271.5c0,6-5.2,12.1-6.9,13c-1.7,0.9-6.9,1.7-11.2,1.7c-18.1,0-28.5-9.5-28.5-27.6
		c0-14.7,9.5-28.5,26.8-28.5c16.4,0,21.6,11.2,21.6,21.6c0,1.7,0,3.5,0,4.3c-0.9,1.7-4.3,3.5-10.4,5.2c-2.6,0.9-15.6,0.9-21.6,0.9
		c0.9,9.5,8.6,13,15.6,13C2529.8,2274,2535,2272.3,2537.6,2271.5L2537.6,2271.5z M2508.2,2251.6c3.5,0,12.1,0,14.7,0
		c0.9,0,0.9-1.7,0.9-2.6c0-5.2-2.6-10.4-7.8-10.4C2512.5,2239.5,2508.2,2242.9,2508.2,2251.6z"/>
	<path fill="#5E0D8B" d="M2593.7,2272.3c0,4.3-1.7,8.6-4.3,11.2c-3.5,2.6-8.6,3.5-13.8,3.5c-17.3,0-28.5-10.4-28.5-26.8
		c0-18.1,13-29.4,30.2-29.4c8.6,0,13.8,2.6,16.4,4.3c0,3.5-1.7,8.6-6,8.6c-2.6-0.9-6-1.7-9.5-1.7c-7.8,0-14.7,5.2-14.7,15.6
		c0,12.1,7.8,17.3,16.4,17.3C2586,2274,2590.3,2273.2,2593.7,2272.3L2593.7,2272.3z"/>
	<path fill="#5E0D8B" d="M2619.6,2236c5.2-4.3,9.5-6.9,16.4-6.9c10.4,0,17.3,7.8,17.3,21.6v16.4c0,5.2,0,13,0,17.3
		c-2.6,0-8.6,0.9-14.7,0.9c-1.7,0-2.6-0.9-2.6-2.6c0-6,0-20.7,0-31.1c0-5.2-3.5-9.5-8.6-9.5c-2.6,0-6,0.9-8.6,3.5v36.3
		c0,2.6,0,3.5-2.6,3.5c-5.2,0.9-8.6,0.9-14.7,0.9c0-7.8,0-14.7,0-21.6v-45.8c0-6.9,0-10.4-0.9-13c2.6-0.9,12.1-2.6,14.7-2.6
		c1.7,0,2.6,0.9,2.6,7.8v25.1H2619.6z"/>
	<path fill="#5E0D8B" d="M2770,2236c4.3-4.3,10.4-6.9,16.4-6.9c10.4,0,17.3,7.8,17.3,20.7v16.4c0,5.2,0,13,0,17.3
		c-2.6,0-8.6,0.9-14.7,0.9c-1.7,0-2.6-0.9-2.6-2.6c0-6,0-20.7,0-32c0-5.2-3.5-9.5-8.6-9.5c-2.6,0-6,0.9-8.6,3.5v36.3
		c0,2.6,0,3.5-2.6,3.5c-5.2,0.9-8.6,0.9-14.7,0.9c0-7.8,0-14.7,0-21.6v-43.2h-21.6v49.2c0,8.6,0,12.1,0,14.7
		c-3.5,0.9-8.6,0.9-14.7,0.9c-1.7,0-2.6,0-2.6-2.6v-63.1h-22.5c-1.7,0-3.5-0.9-2.6-4.3c1.7-4.3,3.5-6,4.3-7.8
		c1.7,0.9,6,0.9,18.1,0.9h42.3c0-1.7,0-2.6,0-4.3c2.6-0.9,12.1-2.6,14.7-2.6c1.7,0,2.6,0.9,2.6,7.8V2236z"/>
	<path fill="#5E0D8B" d="M2860.7,2271.5c0,6-5.2,12.1-6.9,13c-1.7,0.9-6.9,1.7-11.2,1.7c-18.1,0-28.5-9.5-28.5-27.6
		c0-14.7,9.5-28.5,26.8-28.5c16.4,0,21.6,11.2,21.6,21.6c0,1.7,0,3.5,0,4.3c-0.9,1.7-4.3,3.5-10.4,5.2c-2.6,0.9-15.6,0.9-21.6,0.9
		c0.9,9.5,8.6,13,15.6,13C2852.9,2274,2858.1,2272.3,2860.7,2271.5L2860.7,2271.5z M2831.3,2251.6c3.5,0,12.1,0,14.7,0
		c0.9,0,0.9-1.7,0.9-2.6c0-5.2-2.6-10.4-7.8-10.4C2835.6,2239.5,2831.3,2242.9,2831.3,2251.6z"/>
	<path fill="#5E0D8B" d="M2870.2,2236.9c0.9-3.5,6-6.9,10.4-6.9c6,0,8.6,5.2,8.6,13c3.5-8.6,8.6-13,15.6-13c2.6,0,6,1.7,6.9,2.6
		c0,2.6-0.9,8.6-3.5,12.1c-0.9,1.7-2.6,2.6-4.3,1.7c-1.7-0.9-3.5-0.9-5.2-0.9s-5.2,0.9-6.9,6c-0.9,1.7-0.9,3.5-0.9,6v25.1
		c0,1.7,0,3.5-2.6,3.5c-5.2,0.9-8.6,0.9-14.7,0.9c0-7.8,0-14.7,0-21.6v-20.7C2872.8,2240.4,2871.9,2238.6,2870.2,2236.9
		L2870.2,2236.9z"/>
	<path fill="#5E0D8B" d="M2966.1,2274.9c0,6.9-3.5,12.1-11.2,12.1c-5.2,0-8.6-2.6-10.4-6c-3.5,3.5-7.8,6-13.8,6
		c-7.8,0-15.6-6-15.6-15.6c0-12.1,13-15.6,23.3-17.3c2.6-0.9,5.2-0.9,6-0.9v-1.7c0-4.3-3.5-8.6-8.6-8.6c-4.3,0-8.6,1.7-10.4,3.5
		c-6,1.7-7.8-3.5-7.8-7.8c6-4.3,14.7-7.8,22.5-7.8c10.4,0,20.7,6.9,20.7,20.7c0,5.2-0.9,13-0.9,20.7c0,0.9,1.7,2.6,4.3,2.6
		C2964.4,2274,2965.2,2274,2966.1,2274.9L2966.1,2274.9z M2936.7,2274c2.6,0,3.5-0.9,5.2-1.7c0.9-0.9,0.9-1.7,0.9-4.3v-8.6
		c-11.2,0.9-13,5.2-13,7.8C2929.8,2272.3,2933.3,2274,2936.7,2274z"/>
	<path fill="#5E0D8B" d="M2992.9,2306c0,2.6,0,3.5-2.6,3.5c-5.2,0.9-9.5,0.9-14.7,0.9c0-5.2,0-12.1,0-19v-48.4c0-2.6-0.9-5.2-2.6-6
		v-0.9c1.7-3.5,5.2-6.9,10.4-6.9s6.9,4.3,7.8,6.9c6-4.3,11.2-6.9,16.4-6.9c13.8,0,21.6,11.2,21.6,25.9c0,19-13.8,31.1-29.4,31.1
		c-3.5,0-6-0.9-7.8-1.7v21.6H2992.9z M2992.9,2274.9c1.7,0.9,3.5,0.9,5.2,0.9c7.8,0,14.7-6,14.7-18.1c0-8.6-4.3-15.6-11.2-15.6
		c-3.5,0-6,0.9-7.8,2.6v30.2H2992.9z"/>
	<path fill="#5E0D8B" d="M3040.4,2303.4c3.5-3.5,11.2-13.8,14.7-21.6c-0.9-0.9-1.7-3.5-2.6-5.2c-2.6-6-13-34.6-17.3-43.2
		c4.3-1.7,11.2-3.5,13.8-3.5s3.5,1.7,4.3,4.3c3.5,7.8,7.8,22.5,10.4,32c4.3-11.2,8.6-27.6,10.4-35.4c2.6,0,6,0.9,9.5,1.7
		c3.5,0.9,3.5,2.6,3.5,5.2c-3.5,13.8-8.6,29.4-15.6,44.1c-7.8,15.6-16.4,28.5-19.9,28.5C3046.5,2309.5,3041.3,2306,3040.4,2303.4
		L3040.4,2303.4z"/>
</g>
<g>
	<g>
		<path fill="#5E0D8B" d="M632.4,1950.9c0-13,0-24.2-0.9-36.3c7.8-1.7,26.8-3.5,46.7-3.5c42.3,0,72.6,13.8,72.6,56.2
			c0,40.6-35.4,54.4-51.8,55.3c-3.5,0-10.4,0-13.8-1.7c-4.3-2.6-10.4-11.2-10.4-20.7c0.9,0,4.3,0,6,0c13.8,0,28.5-6.9,28.5-32.8
			c0-22.5-14.7-32-30.2-32c-1.7,0-6,0-8.6,0.9v114.9c0,19,0.9,26.8,0.9,32c-4.3,1.7-25.1,2.6-32.8,2.6c-4.3,0-6-0.9-6-5.2
			L632.4,1950.9L632.4,1950.9z"/>
	</g>
	<g>
		<path fill="#5E0D8B" d="M804.4,2076.2c0,5.2-1.7,6.9-6.9,6.9c-7.8,0.9-25.9,0.9-32,0.9c0.9-11.2,0.9-26.8,0.9-50.1v-90.7
			c0-13,0-19.9-0.9-27.6c6-1.7,37.2-4.3,49.2-4.3c46.7,0,67.4,15.6,67.4,49.2c0,25.1-21.6,37.2-32,42.3c6,6,13.8,19.9,23.3,35.4
			c13,22.5,20.7,33.7,27.6,42.3v0.9c-1.7,1.7-13.8,3.5-25.1,3.5c-11.2,0-19-1.7-25.9-11.2c-6-7.8-12.1-20.7-24.2-43.2
			c-6.9-14.7-12.1-15.6-19-15.6h-3.5v61.3H804.4z M804.4,1991.5c6,0.9,20.7,0,24.2-1.7s14.7-8.6,14.7-26.8c0-20.7-13-30.2-29.4-30.2
			c-3.5,0-6.9,0-10.4,0.9v57.9H804.4z"/>
	</g>
	<g>
		<path fill="#5E0D8B" d="M1086,1995.8c0,49.2-31.1,90.7-89,90.7c-63.1,0-88.1-45.8-88.1-88.1c0-51,32.8-89.9,89-89.9
			C1054.9,1907.7,1086,1948.3,1086,1995.8 M950.4,1995c0,44.1,21.6,67.4,49.2,67.4c28.5,0,44.9-24.2,44.9-63.9
			c0-37.2-17.3-66.5-49.2-66.5C971.1,1931.9,950.4,1950.9,950.4,1995"/>
	</g>
	<g>
		<path fill="#5E0D8B" d="M1179.4,1938h-47.5c-5.2,0-6.9-1.7-5.2-8.6c3.5-9.5,6.9-14.7,9.5-18.1c5.2,0.9,13,1.7,38.9,1.7h99.4
			c-1.7,17.3-9.5,24.2-15.6,25.9h-40.6v111.5c0,19,0.9,27.6,0.9,32.8c-8.6,1.7-19.9,2.6-33.7,2.6c-4.3,0-6-0.9-6-5.2L1179.4,1938
			L1179.4,1938z"/>
	</g>
	<g>
		<path fill="#5E0D8B" d="M1398,1981.2v-60.5c0-6,2.6-7.8,7.8-7.8c6.9-0.9,22.5-0.9,32-0.9c-0.9,10.4-0.9,26.8-0.9,49.2v88.1
			c0,19,0.9,27.6,0.9,33.7c-6,1.7-25.9,2.6-32.8,2.6c-4.3,0-6.9-0.9-6.9-6v-73.4c-5.2,0.9-13.8,0.9-26.8,0.9h-38v69.1
			c0,6-1.7,6.9-8.6,7.8c-7.8,0.9-25.1,1.7-31.1,0.9c0.9-11.2,0.9-26.8,0.9-50.1v-86.4c0-18.1,0-29.4-0.9-34.6
			c8.6-1.7,27.6-2.6,33.7-2.6c5.2,0,6,2.6,6,14.7v54.4h64.8V1981.2z"/>
	</g>
	<g>
		<path fill="#5E0D8B" d="M1476.6,1950c0-13,0-22.5-0.9-34.6c8.6-1.7,22.5-3.5,35.4-3.5h64.8c-1.7,14.7-6,19.9-8.6,24.2
			c-4.3,1.7-15.6,1.7-26.8,1.7h-24.2v44.1h57.9c-2.6,21.6-8.6,25.9-19,25.9h-38.9v49.2c6,0.9,13,1.7,21.6,1.7c10.4,0,32,0,45.8-0.9
			l0.9,0.9c-2.6,13.8-8.6,20.7-15.6,25.1c-3.5,0.9-17.3,1.7-38.9,1.7c-25.1,0-42.3-1.7-48.4-2.6l-4.3-5.2V1950H1476.6z"/>
	</g>
	<g>
		<path fill="#5E0D8B" d="M1645.1,2076.2c0,5.2-1.7,6.9-6,6.9c-7.8,0.9-25.9,0.9-32,0.9c0.9-11.2,0.9-26.8,0.9-50.1v-90.7
			c0-13,0-19.9-0.9-27.6c6-1.7,37.2-4.3,49.2-4.3c46.7,0,67.4,15.6,67.4,49.2c0,25.1-21.6,37.2-32,42.3c6,6,13.8,19.9,23.3,35.4
			c13,22.5,20.7,33.7,27.6,42.3v0.9c-1.7,1.7-13.8,3.5-25.1,3.5c-11.2,0-19-1.7-25.9-11.2c-6-7.8-12.1-20.7-24.2-43.2
			c-6.9-14.7-12.1-15.6-19-15.6h-3.5L1645.1,2076.2L1645.1,2076.2z M1645.1,1991.5c6,0.9,20.7,0,24.2-1.7
			c3.5-1.7,14.7-8.6,14.7-26.8c0-20.7-13-30.2-29.4-30.2c-3.5,0-6.9,0-10.4,0.9v57.9H1645.1z"/>
	</g>
	<g>
		<path fill="#5E0D8B" d="M1804,2039c-5.2,13-12.1,32.8-15.6,41.5c-0.9,2.6-3.5,4.3-7.8,4.3c-6.9,0-20.7-1.7-27.6-3.5v-0.9
			c13.8-33.7,54.4-133.1,65.7-159.8l-1.7-5.2c12.1-2.6,30.2-3.5,33.7-3.5c1.7,0,4.3,1.7,6,5.2c13,30.2,32,81.2,40.6,104.5
			c11.2,29.4,18.1,45.8,23.3,58.8v0.9c-6,1.7-28.5,3.5-35.4,3.5c-4.3,0-6.9-1.7-9.5-8.6c-5.2-13.8-8.6-24.2-13-36.3H1804V2039z
			 M1855,2013.1c-11.2-32-19-51.8-21.6-59.6c-6,16.4-13,37.2-21.6,59.6H1855z"/>
	</g>
	<g>
		<path fill="#5E0D8B" d="M1940.5,1950.9c0-13,0-24.2-0.9-36.3c6.9-1.7,26.8-3.5,46.7-3.5c43.2,0,72.6,13.8,72.6,56.2
			c0,40.6-35.4,54.4-51.8,55.3c-3.5,0-10.4,0-13.8-1.7c-4.3-2.6-10.4-11.2-10.4-20.7c1.7,0,4.3,0,6,0c13.8,0,28.5-6.9,28.5-32.8
			c0-22.5-14.7-32-30.2-32c-2.6,0-6,0-8.6,0.9v114.9c0,19,0.9,26.8,0.9,32c-4.3,1.7-25.1,2.6-33.7,2.6c-4.3,0-6-0.9-6-5.2v-129.6
			H1940.5z"/>
	</g>
	<g>
		<path fill="#5E0D8B" d="M2127.2,2016.6c0-5.2-0.9-9.5-2.6-13c-14.7-26.8-37.2-61.3-54.4-86.4v-0.9c10.4-2.6,26.8-5.2,33.7-5.2
			c5.2,0,6.9,0.9,14.7,13c9.5,15.6,20.7,37.2,32,56.2c12.1-19.9,34.6-59.6,39.7-69.1c11.2,0,22.5,1.7,26.8,3.5
			c4.3,1.7,3.5,5.2,0,11.2c-6,11.2-46.7,70.8-48.4,75.2c-2.6,4.3-3.5,8.6-3.5,12.1v36.3c0,18.1,0.9,26.8,0.9,32.8
			c-6.9,1.7-16.4,2.6-34.6,2.6c-4.3,0-5.2-0.9-5.2-5.2v-63.1H2127.2z"/>
	</g>
	<g>
		<path fill="#5E0D8B" d="M657.5,2304.3c0,5.2-1.7,6-5.2,6.9c-6,0.9-16.4,0.9-19.9,0.9c0.9-11.2,0.9-27.6,0.9-51v-92.4
			c0-13.8,0-19.9-0.9-29.4c7.8-1.7,29.4-4.3,41.5-4.3c37.2,0,61.3,13,61.3,49.2c0,27.6-23.3,40.6-34.6,45.8
			c6.9,5.2,15.6,17.3,25.9,35.4c13.8,23.3,25.1,38,31.1,43.2v1.7c-1.7,1.7-8.6,2.6-16.4,2.6c-7.8,0-14.7-3.5-22.5-13.8
			c-9.5-13.8-13.8-21.6-24.2-38.9c-11.2-17.3-16.4-22.5-31.1-22.5h-7.8v66.5H657.5z M657.5,2222.2c10.4,0.9,26.8,0,30.2-1.7
			c10.4-3.5,22.5-13.8,22.5-33.7c0-26.8-18.1-35.4-36.3-35.4c-6,0-12.1,0.9-16.4,1.7V2222.2z"/>
	</g>
	<g>
		<path fill="#5E0D8B" d="M864.9,2288.7c0,8.6-6,16.4-10.4,19c-4.3,2.6-16.4,6-26.8,6c-38.9,0-59.6-23.3-59.6-62.2
			c0-35.4,20.7-66.5,57.9-66.5c32,0,44.9,23.3,45.8,45.8c0,2.6,0,6.9-0.9,8.6c-0.9,4.3-13.8,8.6-24.2,9.5
			c-8.6,1.7-36.3,2.6-56.2,1.7c0,28.5,17.3,44.9,42.3,44.9C845,2295.6,858.8,2291.3,864.9,2288.7L864.9,2288.7z M791.4,2236
			c19.9,0.9,44.9,0,50.1,0c3.5,0,6-2.6,6-6c0-16.4-8.6-29.4-25.9-29.4C807.8,2199.7,794,2212.7,791.4,2236"/>
	</g>
	<g>
		<path fill="#5E0D8B" d="M918.4,2204.1c11.2-9.5,24.2-19,41.5-19c31.1,0,40.6,25.1,40.6,51v38c0,17.3,0,28.5,0.9,35.4
			c-6,0.9-13,1.7-20.7,1.7c-2.6,0-4.3-1.7-4.3-4.3c0-7.8,0-44.9,0-69.1c0-25.1-12.1-34.6-26.8-34.6c-13.8,0-25.9,9.5-31.1,14.7v85.5
			c0,4.3-1.7,6-5.2,6.9c-6.9,0.9-13,0.9-19,0.9c0.9-10.4,0.9-26.8,0.9-51v-103.7c0-17.3-0.9-25.1-0.9-31.1c6-1.7,16.4-3.5,20.7-3.5
			c2.6,0,4.3,1.7,4.3,18.1v63.9H918.4z"/>
	</g>
	<g>
		<path fill="#5E0D8B" d="M1131,2296.5c0.9,11.2-6,17.3-17.3,17.3c-12.1,0-18.1-7.8-19.9-17.3c-7.8,8.6-20.7,17.3-35.4,17.3
			c-19,0-32-13.8-32-31.1c0-30.2,38.9-38,53.6-41.5c5.2-0.9,10.4-1.7,13.8-2.6v-7.8c0-13-7.8-25.9-24.2-25.9
			c-10.4,0-20.7,5.2-28.5,10.4c-7.8,2.6-11.2-3.5-12.1-10.4c8.6-7.8,27.6-19,45.8-19c28.5,0,41.5,19.9,41.5,46.7
			c0,12.1-0.9,38.9-0.9,55.3c0,6,3.5,8.6,9.5,8.6C1126.7,2296.5,1129.2,2296.5,1131,2296.5L1131,2296.5z M1067.9,2295.6
			c11.2,0,19.9-6.9,23.3-13c1.7-1.7,1.7-4.3,1.7-9.5v-21.6c-22.5,3.5-44.1,11.2-44.1,26.8
			C1048.9,2289.6,1057.5,2295.6,1067.9,2295.6"/>
	</g>
	<g>
		<path fill="#5E0D8B" d="M1179.4,2198c10.4-6,25.1-13,37.2-13c25.1,0,51.8,18.1,51.8,58.8c0,43.2-32.8,70-73.4,70
			c-13.8,0-27.6-3.5-33.7-6.9c-3.5-1.7-4.3-3.5-4.3-7.8v-142.6c0-17.3-0.9-25.1-0.9-31.1c5.2-1.7,16.4-3.5,19.9-3.5
			s4.3,1.7,4.3,18.1v57.9H1179.4z M1179.4,2295.6c5.2,1.7,12.1,2.6,17.3,2.6c24.2,0,46.7-16.4,46.7-51c0-26.8-15.6-43.2-38.9-43.2
			c-6.9,0-18.1,3.5-25.1,7.8V2295.6z"/>
	</g>
	<g>
		<path fill="#5E0D8B" d="M1321.9,2142.7c0,7.8-5.2,13.8-13.8,13.8c-7.8,0-13.8-4.3-13.8-13.8s7.8-13.8,13.8-13.8
			C1316.7,2128.9,1321.9,2134.9,1321.9,2142.7 M1320.2,2303.4c0,5.2-1.7,6.9-5.2,6.9c-3.5,0.9-11.2,0.9-18.1,1.7
			c0-11.2,0.9-26.8,0.9-44.1v-46.7c0-17.3-0.9-25.9-1.7-31.1c4.3-1.7,16.4-2.6,20.7-2.6c2.6,0,4.3,1.7,4.3,17.3v98.5H1320.2z"/>
	</g>
	<g>
		<path fill="#5E0D8B" d="M1358.2,2156.5c0-16.4-0.9-25.1-0.9-31.1c5.2-2.6,16.4-3.5,19.9-3.5s4.3,1.7,4.3,18.1V2274
			c0,13.8,0.9,28.5,1.7,36.3c-5.2,1.7-18.1,1.7-20.7,1.7c-2.6,0-3.5-0.9-3.5-3.5v-152.1H1358.2z"/>
	</g>
	<g>
		<path fill="#5E0D8B" d="M1444.6,2142.7c0,7.8-5.2,13.8-13.8,13.8c-7.8,0-13.8-4.3-13.8-13.8s7.8-13.8,13.8-13.8
			C1440.3,2128.9,1444.6,2134.9,1444.6,2142.7 M1442.9,2303.4c0,5.2-1.7,6.9-5.2,6.9c-3.5,0.9-11.2,0.9-18.1,1.7
			c0-11.2,0.9-26.8,0.9-44.1v-46.7c0-17.3-0.9-25.9-1.7-31.1c5.2-1.7,16.4-2.6,20.7-2.6c2.6,0,3.5,1.7,3.5,17.3L1442.9,2303.4
			L1442.9,2303.4z"/>
	</g>
	<g>
		<path fill="#5E0D8B" d="M1548.3,2290.5c0.9,6,0.9,11.2-4.3,15.6c-5.2,4.3-16.4,7.8-25.9,7.8c-24.2,0-34.6-15.6-34.6-36.3v-71.7
			c-9.5,0-13-2.6-13-6c2.6-6,19.9-21.6,24.2-25.1c3.5-3.5,7.8-6,13.8-6.9c-0.9,8.6-0.9,15.6-0.9,21.6h44.1
			c-2.6,13.8-8.6,14.7-13.8,15.6c-9.5,0.9-10.4,0.9-31.1,0.9c-1.7,28.5-1.7,58.8,0,70c1.7,16.4,10.4,20.7,19.9,20.7
			C1534.5,2295.6,1542.2,2293.1,1548.3,2290.5L1548.3,2290.5z"/>
	</g>
	<g>
		<path fill="#5E0D8B" d="M1670.1,2296.5c0.9,11.2-6,17.3-18.1,17.3c-11.2,0-17.3-7.8-19-17.3c-7.8,8.6-20.7,17.3-35.4,17.3
			c-19,0-32.8-13.8-32.8-31.1c0-30.2,38.9-38,54.4-41.5c5.2-0.9,10.4-1.7,13.8-2.6v-7.8c0-13-7.8-25.9-24.2-25.9
			c-10.4,0-20.7,5.2-28.5,10.4c-7.8,2.6-11.2-3.5-12.1-10.4c8.6-7.8,26.8-19,45.8-19c27.6,0,41.5,19.9,41.5,46.7
			c0,12.1-0.9,38.9-0.9,55.3c0,6,3.5,8.6,9.5,8.6C1665.8,2296.5,1668.4,2296.5,1670.1,2296.5L1670.1,2296.5z M1607,2295.6
			c12.1,0,19.9-6.9,23.3-13c1.7-1.7,1.7-4.3,1.7-9.5v-21.6c-22.5,3.5-44.1,11.2-44.1,26.8C1588.9,2289.6,1596.7,2295.6,1607,2295.6"
			/>
	</g>
	<g>
		<path fill="#5E0D8B" d="M1760.8,2290.5c1.7,6,0.9,11.2-4.3,15.6c-6,4.3-16.4,7.8-25.9,7.8c-24.2,0-34.6-15.6-34.6-36.3v-71.7
			c-9.5,0-13.8-2.6-13.8-6c2.6-6,20.7-21.6,24.2-25.1c3.5-3.5,7.8-6,13.8-6.9c-0.9,8.6-1.7,15.6-1.7,21.6h44.1
			c-2.6,13.8-8.6,14.7-13.8,15.6c-9.5,0.9-11.2,0.9-31.1,0.9c-0.9,28.5-0.9,58.8,0,70c1.7,16.4,10.4,20.7,19.9,20.7
			C1747,2295.6,1755.6,2293.1,1760.8,2290.5L1760.8,2290.5z"/>
	</g>
	<g>
		<path fill="#5E0D8B" d="M1809.2,2142.7c0,7.8-5.2,13.8-13,13.8c-7.8,0-13.8-4.3-13.8-13.8s7.8-13.8,13.8-13.8
			C1804.9,2128.9,1809.2,2134.9,1809.2,2142.7 M1808.4,2303.4c0,5.2-1.7,6.9-5.2,6.9c-4.3,0.9-10.4,0.9-19,1.7
			c0-11.2,0.9-26.8,0.9-44.1v-46.7c0-17.3-0.9-25.9-0.9-31.1c4.3-1.7,16.4-2.6,20.7-2.6c2.6,0,4.3,1.7,4.3,17.3v98.5H1808.4z"/>
	</g>
	<g>
		<path fill="#5E0D8B" d="M1957.8,2249c0,37.2-23.3,64.8-61.3,64.8c-40.6,0-60.5-29.4-60.5-63.1c0-36.3,25.9-65.7,62.2-65.7
			C1938,2185.9,1957.8,2213.6,1957.8,2249 M1861.1,2248.1c0,33.7,17.3,51,38,51c16.4,0,33.7-13.8,33.7-48.4
			c0-25.9-11.2-49.2-36.3-49.2C1877.5,2200.6,1861.1,2217.9,1861.1,2248.1"/>
	</g>
	<g>
		<path fill="#5E0D8B" d="M2068.4,2236.9c0-21.6-10.4-32-25.9-32c-13.8,0-25.1,9.5-31.1,17.3v82.9c0,6-0.9,6.9-6,6.9
			c-6,0.9-12.1,0.9-18.1,0.9c0.9-10.4,0.9-26.8,0.9-51v-46.7c0-10.4-0.9-14.7-4.3-17.3v-0.9c2.6-4.3,10.4-9.5,15.6-9.5
			c8.6,0,11.2,13,12.1,20.7c10.4-11.2,25.9-20.7,40.6-20.7c32,0,40.6,24.2,40.6,51v38.9c0,16.4,0.9,27.6,1.7,34.6
			c-6,0.9-13.8,1.7-20.7,1.7c-3.5,0-4.3-1.7-4.3-4.3L2068.4,2236.9z"/>
	</g>
</g>
<g>
	<g>
		<g>
			<g>
				<path fill="#5E0D8B" d="M448.4,2080.5c-19.9,0-38.9-8.6-52.7-23.3c-25.9-29.4-24.2-74.3,5.2-100.2c13-12.1,30.2-18.1,47.5-18.1
					c19.9,0,38.9,8.6,52.7,23.3c25.9,29.4,24.2,74.3-5.2,100.2C483,2074.5,465.7,2080.5,448.4,2080.5z M448.4,1958.7
					c-13,0-25.1,4.3-34.6,13c-20.7,19-22.5,51-3.5,71.7c9.5,10.4,23.3,16.4,37.2,16.4c13,0,25.1-5.2,33.7-13
					c20.7-19,22.5-51,3.5-71.7C476.1,1964.7,462.2,1958.7,448.4,1958.7z"/>
			</g>
		</g>
	</g>
</g>
<g>
	<g>
		<g>
			<path fill="#5E0D8B" d="M228.1,2142.7v273.9c0,0,91.6,0,91.6-91.6s0-91.6,0-91.6h91.6c0,0,91.6,0,91.6-91.6H228.1V2142.7z"/>
		</g>
	</g>
</g>
<g>
	<g>
		<g>
			<path fill="#5E0D8B" d="M337.8,2104.7H44.9v-9.5c0-99.4,99.4-100.2,100.2-100.2h82.1v-82.1c0.9-99.4,100.2-101.1,101.1-101.1h9.5
				V2104.7z M63.9,2086.6h255.7v-254.9c-21.6,2.6-72.6,16.4-72.6,81.2v100.2H146C142.6,2013.1,70,2014.8,63.9,2086.6z"/>
		</g>
	</g>
</g>
<g>
	<path fill="#FFFFFF" d="M6316.2,4027.9c0,21.6-13.8,40.6-39.7,40.6c-28.5,0-38.9-20.7-38.9-39.7c0-22.5,14.7-40.6,39.7-40.6
		C6302.3,3989,6316.2,4007.1,6316.2,4027.9z M6256.5,4027.9c0,19.9,9.5,30.2,21.6,30.2c13,0,19.9-11.2,19.9-28.5
		c0-16.4-7.8-29.4-22.5-29.4C6265.2,3999.4,6256.5,4008,6256.5,4027.9z"/>
	<path fill="#FFFFFF" d="M6372.3,4053.8c0,4.3-1.7,8.6-4.3,11.2c-3.5,2.6-8.6,3.5-13.8,3.5c-17.3,0-28.5-10.4-28.5-26.8
		c0-18.1,13-29.4,30.2-29.4c8.6,0,13.8,2.6,16.4,4.3c0,3.5-1.7,8.6-6,8.6c-2.6-0.9-6-1.7-9.5-1.7c-7.8,0-14.7,5.2-14.7,15.6
		c0,12.1,7.8,17.3,16.4,17.3C6364.5,4055.5,6368.9,4054.7,6372.3,4053.8L6372.3,4053.8z"/>
	<path fill="#FFFFFF" d="M6425,4053.8c0,4.3-1.7,8.6-4.3,11.2c-3.5,2.6-8.6,3.5-13.8,3.5c-17.3,0-28.5-10.4-28.5-26.8
		c0-18.1,13-29.4,30.2-29.4c8.6,0,13.8,2.6,16.4,4.3c0,3.5-1.7,8.6-6,8.6c-2.6-0.9-6-1.7-9.5-1.7c-7.8,0-14.7,5.2-14.7,15.6
		c0,12.1,7.8,17.3,16.4,17.3C6417.2,4055.5,6421.6,4054.7,6425,4053.8L6425,4053.8z"/>
	<path fill="#FFFFFF" d="M6433.7,4027c0-7.8,0-11.2-0.9-13.8c2.6-0.9,11.2-1.7,14.7-1.7c1.7,0,2.6,0.9,2.6,7.8c0,7.8,0,17.3,0,25.9
		c0,7.8,5.2,9.5,8.6,9.5s5.2-0.9,7.8-2.6v-34.6c0-3.5,0-4.3,2.6-5.2c6-0.9,9.5-0.9,14.7-0.9c0,2.6,0,11.2,0,21.6v18.1
		c0,4.3,1.7,6,4.3,6v0.9c-0.9,4.3-4.3,8.6-7.8,8.6c-6.9,0-9.5-3.5-11.2-7.8c-2.6,2.6-6,4.3-8.6,6c-2.6,0.9-4.3,1.7-7.8,1.7
		c-13,0-19-8.6-19-20.7V4027z"/>
	<path fill="#FFFFFF" d="M6517.5,4088.4c0,2.6,0,3.5-2.6,3.5c-5.2,0.9-9.5,0.9-14.7,0.9c0-5.2,0-12.1,0-19v-48.4
		c0-2.6-0.9-5.2-2.6-6v-0.9c1.7-3.5,5.2-6.9,10.4-6.9s6.9,4.3,7.8,6.9c6-4.3,11.2-6.9,16.4-6.9c13.8,0,21.6,11.2,21.6,25.9
		c0,19-13.8,31.1-29.4,31.1c-3.5,0-6-0.9-7.8-1.7v21.6H6517.5z M6517.5,4056.4c1.7,0.9,3.5,0.9,5.2,0.9c7.8,0,14.7-6,14.7-18.1
		c0-8.6-4.3-15.6-11.2-15.6c-3.5,0-6,0.9-7.8,2.6v30.2H6517.5z"/>
	<path fill="#FFFFFF" d="M6613.4,4056.4c0,6.9-3.5,12.1-11.2,12.1c-5.2,0-8.6-2.6-10.4-6c-3.5,3.5-7.8,6-13.8,6
		c-7.8,0-15.6-6-15.6-15.6c0-12.1,13-15.6,23.3-17.3c2.6-0.9,5.2-0.9,6-0.9v-1.7c0-4.3-3.5-8.6-8.6-8.6c-4.3,0-8.6,1.7-10.4,3.5
		c-6,1.7-7.8-3.5-7.8-7.8c6-4.3,14.7-7.8,22.5-7.8c10.4,0,20.7,6.9,20.7,20.7c0,5.2-0.9,13-0.9,21.6c0,0.9,1.7,2.6,4.3,2.6
		C6611.6,4056.4,6612.5,4056.4,6613.4,4056.4L6613.4,4056.4z M6584.9,4056.4c2.6,0,3.5-0.9,5.2-1.7c0.9-0.9,0.9-1.7,0.9-4.3v-8.6
		c-11.2,0.9-13,5.2-13,7.8C6577.9,4053.8,6580.5,4056.4,6584.9,4056.4z"/>
	<path fill="#FFFFFF" d="M6656.6,4054.7c0.9,3.5,0,7.8-2.6,9.5c-3.5,2.6-8.6,4.3-13.8,4.3c-13,0-17.3-8.6-17.3-16.4v-27.6
		c-4.3,0-7.8-2.6-7.8-3.5c1.7-4.3,13-13.8,15.6-15.6c2.6-1.7,5.2-3.5,10.4-4.3c0,3.5-0.9,8.6-0.9,12.1h17.3
		c-1.7,9.5-4.3,9.5-6.9,10.4c-1.7,0-7.8,0.9-11.2,0.9c-0.9,8.6,0,19.9,0,25.1c0.9,5.2,3.5,7.8,7.8,7.8
		C6652.3,4056.4,6655.7,4054.7,6656.6,4054.7L6656.6,4054.7z"/>
	<path fill="#FFFFFF" d="M6682.5,4064.2c0,2.6-0.9,2.6-4.3,3.5c-2.6,0-7.8,0.9-13,0.9c0-5.2,0-12.1,0-19v-20.7
		c0-7.8,0-11.2-0.9-13.8c3.5-0.9,12.1-1.7,14.7-1.7c1.7,0,2.6,0.9,2.6,7.8v43.2H6682.5z M6683.4,3994.2c0,5.2-3.5,9.5-8.6,9.5
		c-4.3,0-8.6-2.6-8.6-8.6c0-6.9,6-9.5,9.5-9.5C6679.9,3985.5,6683.4,3989,6683.4,3994.2z"/>
	<path fill="#FFFFFF" d="M6749.9,4039.1c0,17.3-11.2,29.4-28.5,29.4c-14.7,0-26.8-9.5-26.8-27.6c0-16.4,12.1-28.5,28.5-28.5
		C6740.4,4011.5,6749.9,4024.4,6749.9,4039.1z M6711,4038.3c0,13.8,5.2,19.9,11.2,19.9c7.8,0,9.5-7.8,9.5-17.3c0-9.5-3.5-19-11.2-19
		C6713.6,4021.8,6711,4029.6,6711,4038.3z"/>
	<path fill="#FFFFFF" d="M6794.8,4033.9c0-6-3.5-9.5-7.8-9.5s-6,1.7-8.6,3.5v36.3c0,1.7,0,2.6-2.6,3.5c-5.2,0.9-9.5,0.9-14.7,0.9
		c0-7.8,0-14.7,0-21.6V4027c0-3.5,0-5.2-2.6-6v-0.9c0.9-3.5,6-6.9,10.4-6.9c5.2,0,6.9,3.5,7.8,7.8c5.2-4.3,10.4-7.8,16.4-7.8
		c16.4,0,18.1,13.8,18.1,22.5v14.7c0,6,0,13,0.9,18.1c-2.6,0-8.6,0.9-14.7,0.9c-1.7,0-2.6-0.9-2.6-2.6L6794.8,4033.9L6794.8,4033.9z
		"/>
	<path fill="#FFFFFF" d="M6873.4,4056.4c0,6.9-3.5,12.1-11.2,12.1c-5.2,0-8.6-2.6-10.4-6c-3.5,3.5-7.8,6-13.8,6
		c-7.8,0-15.6-6-15.6-15.6c0-12.1,13-15.6,23.3-17.3c2.6-0.9,5.2-0.9,6-0.9v-1.7c0-4.3-3.5-8.6-8.6-8.6c-4.3,0-8.6,1.7-10.4,3.5
		c-6,1.7-7.8-3.5-7.8-7.8c6-4.3,14.7-7.8,22.5-7.8c10.4,0,20.7,6.9,20.7,20.7c0,5.2-0.9,13-0.9,20.7c0,0.9,1.7,2.6,4.3,2.6
		C6871.7,4056.4,6872.6,4056.4,6873.4,4056.4L6873.4,4056.4z M6844.9,4056.4c2.6,0,3.5-0.9,5.2-1.7c0.9-0.9,0.9-1.7,0.9-4.3v-8.6
		c-11.2,0.9-13,5.2-13,7.8C6838,4053.8,6840.6,4056.4,6844.9,4056.4z"/>
	<path fill="#FFFFFF" d="M6882.9,3999.4c0-6.9,0-10.4-0.9-12.1c2.6-0.9,12.1-2.6,14.7-2.6c1.7,0,2.6,0.9,2.6,7.8v58.8
		c0,6,0,13,0.9,16.4c-2.6,0.9-13.8,0.9-15.6,0.9c-0.9,0-1.7,0-1.7-1.7V3999.4z"/>
	<path fill="#FFFFFF" d="M7016,4018.4c4.3-4.3,10.4-6.9,16.4-6.9c10.4,0,17.3,7.8,17.3,20.7v16.4c0,5.2,0,13,0,17.3
		c-2.6,0-8.6,0.9-14.7,0.9c-1.7,0-2.6-0.9-2.6-2.6c0-6,0-20.7,0-32c0-5.2-3.5-9.5-8.6-9.5c-2.6,0-6,0.9-8.6,3.5v36.3
		c0,2.6,0,3.5-2.6,3.5c-5.2,0.9-8.6,0.9-14.7,0.9c0-7.8,0-14.7,0-21.6V4002h-22.5v49.2c0,8.6,0,12.1,0,14.7
		c-3.5,0.9-8.6,0.9-14.7,0.9c-1.7,0-2.6,0-2.6-2.6v-63.1h-22.5c-1.7,0-3.5-0.9-2.6-4.3c1.7-4.3,3.5-6,4.3-7.8
		c1.7,0.9,6,0.9,18.1,0.9h42.3c0-1.7,0-2.6,0-4.3c2.6-0.9,12.1-2.6,14.7-2.6c1.7,0,2.6,0.9,2.6,7.8v27.6H7016z"/>
	<path fill="#FFFFFF" d="M7106.7,4053.8c0,6-5.2,12.1-6.9,13c-1.7,0.9-6.9,1.7-11.2,1.7c-18.1,0-28.5-9.5-28.5-27.6
		c0-14.7,9.5-28.5,26.8-28.5c16.4,0,21.6,11.2,21.6,21.6c0,1.7,0,3.5,0,4.3c-0.9,1.7-4.3,3.5-10.4,5.2c-2.6,0.9-15.6,0.9-21.6,0.9
		c0.9,9.5,8.6,13,15.6,13C7098.9,4055.5,7105,4053.8,7106.7,4053.8L7106.7,4053.8z M7077.3,4033.1c3.5,0,12.1,0,14.7,0
		c0.9,0,0.9-1.7,0.9-2.6c0-5.2-2.6-10.4-7.8-10.4C7081.7,4021,7077.3,4024.4,7077.3,4033.1z"/>
	<path fill="#FFFFFF" d="M7117.1,4018.4c0.9-3.5,6-6.9,10.4-6.9c6,0,8.6,5.2,8.6,13c3.5-8.6,8.6-13,15.6-13c2.6,0,6,1.7,6.9,2.6
		c0,2.6-0.9,8.6-3.5,12.1c-0.9,1.7-2.6,2.6-4.3,1.7c-1.7-0.9-3.5-0.9-5.2-0.9c-1.7,0-5.2,0.9-6.9,6c-0.9,1.7-0.9,3.5-0.9,6v25.1
		c0,1.7,0,3.5-2.6,3.5c-5.2,0.9-8.6,0.9-14.7,0.9c0-7.8,0-14.7,0-21.6v-20.7C7119.7,4022.7,7118.8,4020.1,7117.1,4018.4
		L7117.1,4018.4z"/>
	<path fill="#FFFFFF" d="M7212.1,4056.4c0,6.9-3.5,12.1-11.2,12.1c-5.2,0-8.6-2.6-10.4-6c-3.5,3.5-7.8,6-13.8,6
		c-7.8,0-15.6-6-15.6-15.6c0-12.1,13-15.6,23.3-17.3c2.6-0.9,5.2-0.9,6-0.9v-1.7c0-4.3-3.5-8.6-8.6-8.6c-4.3,0-8.6,1.7-10.4,3.5
		c-6,1.7-7.8-3.5-7.8-7.8c6-4.3,14.7-7.8,22.5-7.8c10.4,0,20.7,6.9,20.7,20.7c0,5.2-0.9,13-0.9,20.7c0,0.9,1.7,2.6,4.3,2.6
		C7210.4,4056.4,7211.3,4056.4,7212.1,4056.4L7212.1,4056.4z M7183.6,4056.4c2.6,0,3.5-0.9,5.2-1.7c0.9-0.9,0.9-1.7,0.9-4.3v-8.6
		c-11.2,0.9-13,5.2-13,7.8C7176.7,4053.8,7179.3,4056.4,7183.6,4056.4z"/>
	<path fill="#FFFFFF" d="M7239.8,4088.4c0,2.6,0,3.5-2.6,3.5c-5.2,0.9-9.5,0.9-14.7,0.9c0-5.2,0-12.1,0-19v-48.4
		c0-2.6-0.9-5.2-2.6-6v-0.9c1.7-3.5,5.2-6.9,10.4-6.9c5.2,0,6.9,4.3,7.8,6.9c6-4.3,11.2-6.9,16.4-6.9c13.8,0,21.6,11.2,21.6,25.9
		c0,19-13.8,31.1-29.4,31.1c-3.5,0-6-0.9-7.8-1.7v21.6H7239.8z M7239.8,4056.4c1.7,0.9,3.5,0.9,5.2,0.9c7.8,0,14.7-6,14.7-18.1
		c0-8.6-4.3-15.6-11.2-15.6c-3.5,0-6,0.9-7.8,2.6v30.2H7239.8z"/>
	<path fill="#FFFFFF" d="M7286.4,4084.9c3.5-3.5,11.2-13.8,14.7-21.6c-0.9-0.9-1.7-3.5-2.6-5.2c-2.6-6-13-34.6-17.3-43.2
		c4.3-1.7,11.2-3.5,13.8-3.5c2.6,0,3.5,1.7,4.3,4.3c3.5,7.8,7.8,22.5,10.4,32c4.3-11.2,8.6-27.6,10.4-35.4c2.6,0,6,0.9,9.5,1.7
		c3.5,0.9,3.5,2.6,3.5,5.2c-3.5,13.8-8.6,29.4-15.6,44.1c-7.8,15.6-16.4,28.5-19.9,28.5C7292.5,4091,7288.2,4088.4,7286.4,4084.9
		L7286.4,4084.9z"/>
	<path fill="#FFFFFF" d="M6241.9,4154c0-6,0-11.2-0.9-16.4c3.5-0.9,12.1-1.7,20.7-1.7c19,0,32.8,6,32.8,25.1
		c0,18.1-15.6,24.2-23.3,24.2c-1.7,0-4.3,0-6-0.9c-1.7-0.9-4.3-5.2-4.3-9.5c0.9,0,1.7,0,2.6,0c6,0,13-3.5,13-14.7
		c0-10.4-6-13.8-13.8-13.8c-0.9,0-2.6,0-4.3,0v51c0,8.6,0,12.1,0,14.7c-1.7,0.9-11.2,0.9-14.7,0.9c-1.7,0-2.6,0-2.6-2.6V4154H6241.9
		z"/>
	<path fill="#FFFFFF" d="M6320.5,4164.4c5.2-4.3,9.5-6.9,16.4-6.9c10.4,0,17.3,7.8,17.3,21.6v16.4c0,5.2,0,13,0,17.3
		c-2.6,0-8.6,0.9-14.7,0.9c-1.7,0-2.6-0.9-2.6-2.6c0-6,0-20.7,0-31.1c0-5.2-3.5-9.5-8.6-9.5c-2.6,0-6,0.9-8.6,3.5v36.3
		c0,2.6,0,3.5-2.6,3.5c-5.2,0.9-8.6,0.9-14.7,0.9c0-7.8,0-14.7,0-21.6v-45.8c0-6.9,0-10.4-0.9-13c2.6-0.9,12.1-2.6,14.7-2.6
		c1.7,0,2.6,0.9,2.6,7.8v25.1H6320.5z"/>
	<path fill="#FFFFFF" d="M6368,4230.9c3.5-3.5,11.2-13.8,14.7-21.6c-0.9-0.9-1.7-3.5-2.6-5.2c-2.6-6-13-34.6-17.3-43.2
		c4.3-1.7,11.2-3.5,13.8-3.5c2.6,0,3.5,1.7,4.3,4.3c3.5,7.8,7.8,22.5,10.4,32c4.3-11.2,8.6-27.6,10.4-35.4c2.6,0,6,0.9,9.5,1.7
		c3.5,0.9,3.5,2.6,3.5,5.2c-3.5,13.8-8.6,29.4-15.6,44.1c-7.8,15.6-16.4,28.5-19.9,28.5C6374,4237,6368.9,4233.5,6368,4230.9
		L6368,4230.9z"/>
	<path fill="#FFFFFF" d="M6455.3,4161.8c0,3.5-1.7,8.6-6,8.6c-2.6-0.9-5.2-1.7-7.8-1.7c-3.5,0-5.2,1.7-5.2,4.3
		c0,1.7,1.7,3.5,4.3,4.3c1.7,0.9,6.9,3.5,9.5,5.2c6,3.5,8.6,8.6,8.6,13.8c0,12.1-11.2,18.1-22.5,18.1c-4.3,0-9.5-0.9-13-3.5
		c-1.7-0.9-3.5-2.6-3.5-4.3c0-2.6,1.7-6,3.5-7.8c3.5,2.6,8.6,4.3,13.8,4.3c3.5,0,6-1.7,6-4.3c0-1.7-0.9-3.5-4.3-5.2
		c-2.6-1.7-6-3.5-9.5-5.2c-5.2-2.6-8.6-7.8-8.6-13.8c0-11.2,9.5-17.3,20.7-17.3C6445.8,4157.5,6450.1,4158.3,6455.3,4161.8z"/>
	<path fill="#FFFFFF" d="M6484.6,4209.3c0,2.6-0.9,2.6-4.3,3.5c-2.6,0-7.8,0.9-13,0.9c0-5.2,0-12.1,0-19V4173c0-7.8,0-11.2-0.9-13.8
		c3.5-0.9,12.1-1.7,14.7-1.7c1.7,0,2.6,0.9,2.6,7.8v44.1H6484.6z M6484.6,4140.2c0,5.2-3.5,9.5-8.6,9.5c-4.3,0-8.6-2.6-8.6-8.6
		c0-6.9,6-9.5,9.5-9.5C6482,4131.6,6484.6,4135,6484.6,4140.2z"/>
	<path fill="#FFFFFF" d="M6542.5,4199.8c0,4.3-1.7,8.6-4.3,11.2c-3.5,2.6-8.6,3.5-13.8,3.5c-17.3,0-28.5-10.4-28.5-26.8
		c0-18.1,13-29.4,30.2-29.4c8.6,0,13.8,2.6,16.4,4.3c0,3.5-1.7,8.6-6,8.6c-2.6-0.9-6-1.7-9.5-1.7c-7.8,0-14.7,5.2-14.7,15.6
		c0,12.1,7.8,17.3,16.4,17.3C6534.7,4201.5,6539.1,4200.7,6542.5,4199.8L6542.5,4199.8z"/>
	<path fill="#FFFFFF" d="M6600.4,4202.4c0,6.9-3.5,12.1-11.2,12.1c-5.2,0-8.6-2.6-10.4-6c-3.5,3.5-7.8,6-13.8,6
		c-7.8,0-15.6-6-15.6-15.6c0-12.1,13-15.6,23.3-17.3c2.6-0.9,5.2-0.9,6-0.9v-1.7c0-4.3-3.5-8.6-8.6-8.6c-4.3,0-8.6,1.7-10.4,3.5
		c-6,1.7-7.8-3.5-7.8-7.8c6-4.3,14.7-7.8,22.5-7.8c10.4,0,20.7,6.9,20.7,20.7c0,5.2-0.9,13-0.9,20.7c0,0.9,1.7,2.6,4.3,2.6
		C6598.7,4202.4,6599.5,4202.4,6600.4,4202.4L6600.4,4202.4z M6571,4202.4c2.6,0,3.5-0.9,5.2-1.7c0.9-0.9,0.9-1.7,0.9-4.3v-8.6
		c-11.2,0.9-13,5.2-13,7.8C6565,4199.8,6567.6,4202.4,6571,4202.4z"/>
	<path fill="#FFFFFF" d="M6609.9,4145.4c0-6.9,0-10.4-0.9-12.1c2.6-0.9,12.1-2.6,14.7-2.6c1.7,0,2.6,0.9,2.6,7.8v58.8
		c0,6,0,12.1,0.9,16.4c-2.6,0.9-13.8,0.9-15.6,0.9c-0.9,0-1.7,0-1.7-1.7V4145.4z"/>
	<path fill="#FFFFFF" d="M6743,4164.4c4.3-4.3,10.4-6.9,16.4-6.9c10.4,0,17.3,7.8,17.3,20.7v16.4c0,5.2,0,13,0,17.3
		c-2.6,0-8.6,0.9-14.7,0.9c-1.7,0-2.6-0.9-2.6-2.6c0-6,0-20.7,0-32c0-5.2-3.5-9.5-8.6-9.5c-2.6,0-6,0.9-8.6,3.5v36.3
		c0,2.6,0,3.5-2.6,3.5c-5.2,0.9-8.6,0.9-14.7,0.9c0-7.8,0-14.7,0-21.6V4148h-22.5v49.2c0,8.6,0,12.1,0,14.7
		c-3.5,0.9-8.6,0.9-14.7,0.9c-1.7,0-2.6,0-2.6-2.6v-63.1h-21.6c-1.7,0-3.5-0.9-2.6-4.3c1.7-4.3,3.5-6,4.3-7.8
		c1.7,0.9,6,0.9,18.1,0.9h42.3c0-1.7,0-2.6,0-4.3c2.6-0.9,12.1-2.6,14.7-2.6c1.7,0,2.6,0.9,2.6,7.8V4164.4z"/>
	<path fill="#FFFFFF" d="M6833.7,4199.8c0,6-5.2,12.1-6.9,13c-1.7,0.9-6.9,1.7-11.2,1.7c-18.1,0-28.5-9.5-28.5-27.6
		c0-14.7,9.5-28.5,26.8-28.5c16.4,0,21.6,11.2,21.6,21.6c0,1.7,0,3.5,0,4.3c-0.9,1.7-4.3,3.5-10.4,5.2c-2.6,0.9-15.6,0.9-21.6,0.9
		c0.9,9.5,8.6,13,15.6,13C6825.9,4201.5,6831.1,4199.8,6833.7,4199.8L6833.7,4199.8z M6804.3,4179.1c3.5,0,12.1,0,14.7,0
		c0.9,0,0.9-1.7,0.9-2.6c0-5.2-2.6-10.4-7.8-10.4C6808.6,4167,6804.3,4170.4,6804.3,4179.1z"/>
	<path fill="#FFFFFF" d="M6843.2,4164.4c0.9-3.5,6-6.9,10.4-6.9c6,0,8.6,5.2,8.6,13c3.5-8.6,8.6-13,15.6-13c2.6,0,6,1.7,6.9,2.6
		c0,2.6-0.9,8.6-3.5,12.1c-0.9,1.7-2.6,2.6-4.3,1.7c-1.7-0.9-3.5-0.9-5.2-0.9c-1.7,0-5.2,0.9-6.9,6c-0.9,1.7-0.9,3.5-0.9,6v25.1
		c0,1.7,0,3.5-2.6,3.5c-5.2,0.9-8.6,0.9-14.7,0.9c0-7.8,0-14.7,0-21.6v-20.7C6846.7,4168.7,6845.8,4166.1,6843.2,4164.4
		L6843.2,4164.4z"/>
	<path fill="#FFFFFF" d="M6939.1,4202.4c0,6.9-3.5,12.1-11.2,12.1c-5.2,0-8.6-2.6-10.4-6c-3.5,3.5-7.8,6-13.8,6
		c-7.8,0-15.6-6-15.6-15.6c0-12.1,13-15.6,23.3-17.3c2.6-0.9,5.2-0.9,6-0.9v-1.7c0-4.3-3.5-8.6-8.6-8.6c-4.3,0-8.6,1.7-10.4,3.5
		c-6,1.7-7.8-3.5-7.8-7.8c6-4.3,14.7-7.8,22.5-7.8c10.4,0,20.7,6.9,20.7,20.7c0,5.2-0.9,13-0.9,20.7c0,0.9,1.7,2.6,4.3,2.6
		C6937.4,4202.4,6938.2,4202.4,6939.1,4202.4L6939.1,4202.4z M6910.6,4202.4c2.6,0,3.5-0.9,5.2-1.7c0.9-0.9,0.9-1.7,0.9-4.3v-8.6
		c-11.2,0.9-13,5.2-13,7.8C6903.7,4199.8,6906.3,4202.4,6910.6,4202.4z"/>
	<path fill="#FFFFFF" d="M6965.9,4234.4c0,2.6,0,3.5-2.6,3.5c-5.2,0.9-9.5,0.9-14.7,0.9c0-5.2,0-12.1,0-19v-48.4
		c0-2.6-0.9-5.2-2.6-6v-0.9c1.7-3.5,5.2-6.9,10.4-6.9s6.9,4.3,7.8,6.9c6-4.3,11.2-6.9,16.4-6.9c13.8,0,21.6,11.2,21.6,25.9
		c0,19-13.8,31.1-29.4,31.1c-3.5,0-6-0.9-7.8-1.7v21.6H6965.9z M6965.9,4202.4c1.7,0.9,3.5,0.9,5.2,0.9c7.8,0,14.7-6,14.7-18.1
		c0-8.6-4.3-15.6-11.2-15.6c-3.5,0-6,0.9-7.8,2.6v30.2H6965.9z"/>
	<path fill="#FFFFFF" d="M7013.4,4230.9c3.5-3.5,11.2-13.8,14.7-21.6c-0.9-0.9-1.7-3.5-2.6-5.2c-2.6-6-13-34.6-17.3-43.2
		c4.3-1.7,11.2-3.5,13.8-3.5c2.6,0,3.5,1.7,4.3,4.3c3.5,7.8,7.8,22.5,10.4,32c4.3-11.2,8.6-27.6,10.4-35.4c2.6,0,6,0.9,9.5,1.7
		c3.5,0.9,3.5,2.6,3.5,5.2c-3.5,13.8-8.6,29.4-15.6,44.1c-7.8,15.6-16.4,28.5-19.9,28.5C7019.5,4237,7015.1,4233.5,7013.4,4230.9
		L7013.4,4230.9z"/>
	<path fill="#FFFFFF" d="M6282.5,4287.1c0,3.5-2.6,9.5-6.9,8.6c-2.6-1.7-7.8-2.6-12.1-2.6c-6,0-10.4,2.6-10.4,6.9
		c0,5.2,4.3,7.8,15.6,14.7c10.4,6,16.4,10.4,16.4,22.5c0,15.6-13.8,24.2-28.5,24.2c-8.6,0-14.7-2.6-18.1-4.3
		c-2.6-1.7-3.5-2.6-3.5-4.3c0-2.6,2.6-7.8,3.5-8.6c4.3,2.6,12.1,6,18.1,6c6.9,0,11.2-2.6,11.2-7.8c0-4.3-1.7-6.9-14.7-13.8
		c-13.8-7.8-17.3-15.6-17.3-23.3c0-8.6,6-22.5,26.8-22.5C6271.2,4281,6279.9,4283.6,6282.5,4287.1z"/>
	<path fill="#FFFFFF" d="M6313.6,4380.4c0,2.6,0,3.5-2.6,3.5c-5.2,0.9-9.5,0.9-14.7,0.9c0-5.2,0-12.1,0-19v-48.4
		c0-2.6-0.9-5.2-2.6-6v-0.9c1.7-3.5,5.2-6.9,10.4-6.9s6.9,4.3,7.8,6.9c6-4.3,11.2-6.9,16.4-6.9c13.8,0,21.6,11.2,21.6,25.9
		c0,19-13.8,31.1-29.4,31.1c-3.5,0-6-0.9-7.8-1.7v21.6H6313.6z M6313.6,4348.4c1.7,0.9,3.5,0.9,5.2,0.9c7.8,0,14.7-6,14.7-18.1
		c0-8.6-4.3-15.6-11.2-15.6c-3.5,0-6,0.9-7.8,2.6v30.2H6313.6z"/>
	<path fill="#FFFFFF" d="M6406,4345c0,6-5.2,12.1-6.9,13c-1.7,0.9-6.9,1.7-11.2,1.7c-18.1,0-28.5-9.5-28.5-27.6
		c0-14.7,9.5-28.5,26.8-28.5c16.4,0,21.6,11.2,21.6,21.6c0,1.7,0,3.5,0,4.3c-0.9,1.7-4.3,3.5-10.4,5.2c-2.6,0.9-15.6,0.9-21.6,0.9
		c0.9,9.5,8.6,13,15.6,13C6398.2,4347.6,6404.3,4345.8,6406,4345L6406,4345z M6376.6,4325.1c3.5,0,12.1,0,14.7,0
		c0.9,0,0.9-1.7,0.9-2.6c0-5.2-2.6-10.4-7.8-10.4C6381,4313,6376.6,4316.5,6376.6,4325.1z"/>
	<path fill="#FFFFFF" d="M6462.2,4345c0,6-5.2,12.1-6.9,13c-1.7,0.9-6.9,1.7-11.2,1.7c-18.1,0-28.5-9.5-28.5-27.6
		c0-14.7,9.5-28.5,26.8-28.5c16.4,0,21.6,11.2,21.6,21.6c0,1.7,0,3.5,0,4.3c-0.9,1.7-4.3,3.5-10.4,5.2c-2.6,0.9-15.6,0.9-21.6,0.9
		c0.9,9.5,8.6,13,15.6,13C6454.4,4347.6,6459.6,4345.8,6462.2,4345L6462.2,4345z M6432.8,4325.1c3.5,0,12.1,0,14.7,0
		c0.9,0,0.9-1.7,0.9-2.6c0-5.2-2.6-10.4-7.8-10.4C6437.1,4313,6432.8,4316.5,6432.8,4325.1z"/>
	<path fill="#FFFFFF" d="M6518.3,4345.8c0,4.3-1.7,8.6-4.3,11.2c-3.5,2.6-8.6,3.5-13.8,3.5c-17.3,0-28.5-10.4-28.5-26.8
		c0-18.1,13-29.4,30.2-29.4c8.6,0,13.8,2.6,16.4,4.3c0,3.5-1.7,8.6-6,8.6c-2.6-0.9-6-1.7-9.5-1.7c-7.8,0-14.7,5.2-14.7,15.6
		c0,12.1,7.8,17.3,16.4,17.3C6510.6,4347.6,6514.9,4346.7,6518.3,4345.8L6518.3,4345.8z"/>
	<path fill="#FFFFFF" d="M6544.3,4309.5c5.2-4.3,9.5-6.9,16.4-6.9c10.4,0,17.3,7.8,17.3,21.6v16.4c0,5.2,0,13,0,17.3
		c-2.6,0-8.6,0.9-14.7,0.9c-1.7,0-2.6-0.9-2.6-2.6c0-6,0-20.7,0-31.1c0-5.2-3.5-9.5-8.6-9.5c-2.6,0-6,0.9-8.6,3.5v36.3
		c0,2.6,0,3.5-2.6,3.5c-5.2,0.9-8.6,0.9-14.7,0.9c0-7.8,0-14.7,0-21.6v-45.8c0-6.9,0-10.4-0.9-13c2.6-0.9,12.1-2.6,14.7-2.6
		c1.7,0,2.6,0.9,2.6,7.8v25.1H6544.3z"/>
	<path fill="#FFFFFF" d="M6694.6,4310.4c4.3-4.3,10.4-6.9,16.4-6.9c10.4,0,17.3,7.8,17.3,20.7v16.4c0,5.2,0,13,0,17.3
		c-2.6,0-8.6,0.9-14.7,0.9c-1.7,0-2.6-0.9-2.6-2.6c0-6,0-20.7,0-32c0-5.2-3.5-9.5-8.6-9.5c-2.6,0-6,0.9-8.6,3.5v36.3
		c0,2.6,0,3.5-2.6,3.5c-5.2,0.9-8.6,0.9-14.7,0.9c0-7.8,0-14.7,0-21.6V4294h-21.6v49.2c0,8.6,0,12.1,0,14.7
		c-3.5,0.9-8.6,0.9-14.7,0.9c-1.7,0-2.6,0-2.6-2.6V4294h-22.5c-1.7,0-3.5-0.9-2.6-4.3c1.7-4.3,3.5-6,4.3-7.8c1.7,0.9,6,0.9,18.1,0.9
		h42.3c0-1.7,0-2.6,0-4.3c2.6-0.9,12.1-2.6,14.7-2.6c1.7,0,2.6,0.9,2.6,7.8V4310.4z"/>
	<path fill="#FFFFFF" d="M6785.3,4345c0,6-5.2,12.1-6.9,13c-1.7,0.9-6.9,1.7-11.2,1.7c-18.1,0-28.5-9.5-28.5-27.6
		c0-14.7,9.5-28.5,26.8-28.5c16.4,0,21.6,11.2,21.6,21.6c0,1.7,0,3.5,0,4.3c-0.9,1.7-4.3,3.5-10.4,5.2c-2.6,0.9-15.6,0.9-21.6,0.9
		c0.9,9.5,8.6,13,15.6,13C6777.5,4347.6,6782.7,4345.8,6785.3,4345L6785.3,4345z M6755.9,4325.1c3.5,0,12.1,0,14.7,0
		c0.9,0,0.9-1.7,0.9-2.6c0-5.2-2.6-10.4-7.8-10.4C6760.3,4313,6755.9,4316.5,6755.9,4325.1z"/>
	<path fill="#FFFFFF" d="M6794.8,4310.4c0.9-3.5,6-6.9,10.4-6.9c6,0,8.6,5.2,8.6,13c3.5-8.6,8.6-13,15.6-13c2.6,0,6,1.7,6.9,2.6
		c0,2.6-0.9,8.6-3.5,12.1c-0.9,1.7-2.6,2.6-4.3,1.7c-1.7-0.9-3.5-0.9-5.2-0.9c-1.7,0-5.2,0.9-6.9,6c-0.9,1.7-0.9,3.5-0.9,6v25.1
		c0,1.7,0,3.5-2.6,3.5c-5.2,0.9-8.6,0.9-14.7,0.9c0-7.8,0-14.7,0-21.6v-20.7C6797.4,4314.7,6796.5,4312.1,6794.8,4310.4
		L6794.8,4310.4z"/>
	<path fill="#FFFFFF" d="M6890.7,4348.4c0,6.9-3.5,12.1-11.2,12.1c-5.2,0-8.6-2.6-10.4-6c-3.5,3.5-7.8,6-13.8,6
		c-7.8,0-15.6-6-15.6-15.6c0-12.1,13-15.6,23.3-17.3c2.6-0.9,5.2-0.9,6-0.9v-1.7c0-4.3-3.5-8.6-8.6-8.6c-4.3,0-8.6,1.7-10.4,3.5
		c-6,1.7-7.8-3.5-7.8-7.8c6-4.3,14.7-7.8,22.5-7.8c10.4,0,20.7,6.9,20.7,20.7c0,5.2-0.9,13-0.9,20.7c0,0.9,1.7,2.6,4.3,2.6
		C6889,4348.4,6889.9,4348.4,6890.7,4348.4L6890.7,4348.4z M6861.3,4348.4c2.6,0,3.5-0.9,5.2-1.7c0.9-0.9,0.9-1.7,0.9-4.3v-8.6
		c-11.2,0.9-13,5.2-13,7.8C6854.4,4345.8,6857.9,4348.4,6861.3,4348.4z"/>
	<path fill="#FFFFFF" d="M6917.5,4380.4c0,2.6,0,3.5-2.6,3.5c-5.2,0.9-9.5,0.9-14.7,0.9c0-5.2,0-12.1,0-19v-48.4
		c0-2.6-0.9-5.2-2.6-6v-0.9c1.7-3.5,5.2-6.9,10.4-6.9s6.9,4.3,7.8,6.9c6-4.3,11.2-6.9,16.4-6.9c13.8,0,21.6,11.2,21.6,25.9
		c0,19-13.8,31.1-29.4,31.1c-3.5,0-6-0.9-7.8-1.7v21.6H6917.5z M6917.5,4348.4c1.7,0.9,3.5,0.9,5.2,0.9c7.8,0,14.7-6,14.7-18.1
		c0-8.6-4.3-15.6-11.2-15.6c-3.5,0-6,0.9-7.8,2.6v30.2H6917.5z"/>
	<path fill="#FFFFFF" d="M6965,4376.9c3.5-3.5,11.2-13.8,14.7-21.6c-0.9-0.9-1.7-3.5-2.6-5.2c-2.6-6-13-34.6-17.3-43.2
		c4.3-1.7,11.2-3.5,13.8-3.5c2.6,0,3.5,1.7,4.3,4.3c3.5,7.8,7.8,22.5,10.4,32c4.3-11.2,8.6-27.6,10.4-35.4c2.6,0,6,0.9,9.5,1.7
		c3.5,0.9,3.5,2.6,3.5,5.2c-3.5,13.8-8.6,29.4-15.6,44.1c-7.8,15.6-16.4,28.5-19.9,28.5C6971.1,4383,6965.9,4379.5,6965,4376.9
		L6965,4376.9z"/>
</g>
<g>
	<g>
		<path fill="#FFFFFF" d="M4557.1,4024.4c0-13,0-24.2-0.9-36.3c7.8-1.7,26.8-3.5,46.7-3.5c42.3,0,72.6,13.8,72.6,56.2
			c0,40.6-35.4,54.4-51.8,55.3c-3.5,0-10.4,0-13.8-1.7c-4.3-2.6-10.4-11.2-10.4-20.7c0.9,0,4.3,0,6,0c13.8,0,28.5-6.9,28.5-32.8
			c0-22.5-14.7-32-30.2-32c-1.7,0-6,0-8.6,0.9v114.9c0,19,0.9,26.8,0.9,32c-4.3,1.7-25.1,2.6-32.8,2.6c-4.3,0-6-0.9-6-5.2V4024.4
			L4557.1,4024.4z"/>
	</g>
	<g>
		<path fill="#FFFFFF" d="M4729,4149.7c0,5.2-1.7,6.9-6.9,6.9c-7.8,0.9-25.9,0.9-32,0.9c0.9-11.2,0.9-26.8,0.9-50.1v-91.6
			c0-13,0-19.9-0.9-27.6c6-1.7,37.2-4.3,49.2-4.3c46.7,0,67.4,15.6,67.4,49.2c0,25.1-21.6,37.2-32,42.3c6,6,13.8,19.9,23.3,35.4
			c13,22.5,20.7,33.7,27.6,42.3v0.9c-1.7,1.7-13.8,3.5-25.1,3.5c-11.2,0-19-1.7-25.9-11.2c-6-7.8-12.1-20.7-24.2-43.2
			c-6.9-14.7-12.1-15.6-19-15.6h-3.5v62.2H4729z M4729,4065.9c6,0.9,20.7,0,24.2-1.7c3.5-1.7,14.7-8.6,14.7-26.8
			c0-20.7-13-30.2-29.4-30.2c-3.5,0-6.9,0-10.4,0.9v57.9H4729z"/>
	</g>
	<g>
		<path fill="#FFFFFF" d="M5010.7,4069.4c0,49.2-31.1,90.7-89,90.7c-63.1,0-88.1-45.8-88.1-88.1c0-51,32.8-89.9,89-89.9
			C4979.5,3982.1,5010.7,4021.8,5010.7,4069.4 M4875,4068.5c0,44.1,21.6,67.4,49.2,67.4c28.5,0,44.9-24.2,44.9-63.9
			c0-37.2-17.3-66.5-49.2-66.5C4895.7,4005.4,4875,4024.4,4875,4068.5"/>
	</g>
	<g>
		<path fill="#FFFFFF" d="M5104,4011.5h-47.5c-5.2,0-6.9-1.7-5.2-8.6c3.5-9.5,6.9-14.7,9.5-18.1c5.2,0.9,13,1.7,38.9,1.7h99.4
			c-1.7,17.3-9.5,24.2-15.6,25.9h-40.6v111.5c0,19,0.9,27.6,0.9,32.8c-8.6,1.7-19.9,2.6-33.7,2.6c-4.3,0-6-0.9-6-5.2V4011.5
			L5104,4011.5z"/>
	</g>
	<g>
		<path fill="#FFFFFF" d="M5322.6,4054.7v-60.5c0-6,2.6-7.8,7.8-7.8c6.9-0.9,22.5-0.9,32-0.9c-0.9,10.4-0.9,26.8-0.9,49.2v88.1
			c0,19,0.9,27.6,0.9,33.7c-6,1.7-25.9,2.6-32.8,2.6c-4.3,0-6.9-0.9-6.9-6v-73.4c-5.2,0.9-13.8,0.9-26.8,0.9h-38v69.1
			c0,6-1.7,6.9-8.6,7.8c-7.8,0.9-25.1,1.7-31.1,0.9c0.9-11.2,0.9-26.8,0.9-50.1v-86.4c0-18.1,0-29.4-0.9-34.6
			c8.6-1.7,27.6-2.6,33.7-2.6c5.2,0,6,2.6,6,14.7v54.4h64.8V4054.7z"/>
	</g>
	<g>
		<path fill="#FFFFFF" d="M5401.2,4024.4c0-13,0-22.5-0.9-34.6c8.6-1.7,22.5-3.5,35.4-3.5h64.8c-1.7,14.7-6,19.9-8.6,24.2
			c-4.3,1.7-15.6,1.7-26.8,1.7h-24.2v44.1h57.9c-2.6,21.6-8.6,25.9-19,25.9h-38.9v49.2c6,0.9,13,1.7,21.6,1.7c10.4,0,32,0,45.8-0.9
			l0.9,0.9c-2.6,13.8-8.6,20.7-15.6,25.1c-3.5,0.9-17.3,1.7-38.9,1.7c-25.1,0-42.3-1.7-48.4-2.6l-4.3-5.2v-127.9H5401.2z"/>
	</g>
	<g>
		<path fill="#FFFFFF" d="M5569.7,4149.7c0,5.2-1.7,6.9-6,6.9c-7.8,0.9-25.9,0.9-32,0.9c0.9-11.2,0.9-26.8,0.9-50.1v-91.6
			c0-13,0-19.9-0.9-27.6c6-1.7,37.2-4.3,49.2-4.3c46.7,0,67.4,15.6,67.4,49.2c0,25.1-21.6,37.2-32,42.3c6,6,13.8,19.9,23.3,35.4
			c13,22.5,20.7,33.7,27.6,42.3v0.9c-1.7,1.7-13.8,3.5-25.1,3.5s-19-1.7-25.9-11.2c-6-7.8-12.1-20.7-24.2-43.2
			c-6.9-14.7-12.1-15.6-19-15.6h-3.5L5569.7,4149.7L5569.7,4149.7z M5569.7,4065.9c6,0.9,20.7,0,24.2-1.7
			c3.5-1.7,14.7-8.6,14.7-26.8c0-20.7-13-30.2-29.4-30.2c-3.5,0-6.9,0-10.4,0.9v57.9H5569.7z"/>
	</g>
	<g>
		<path fill="#FFFFFF" d="M5728.6,4112.6c-5.2,13-12.1,32.8-15.6,41.5c-0.9,2.6-3.5,4.3-7.8,4.3c-6.9,0-20.7-1.7-27.6-3.5v-0.9
			c13.8-33.7,54.4-133.1,65.7-159.8l-1.7-5.2c12.1-2.6,30.2-3.5,33.7-3.5c1.7,0,4.3,1.7,6,5.2c13,30.2,32,81.2,40.6,104.5
			c11.2,29.4,18.1,45.8,23.3,58.8v0.9c-6,1.7-28.5,3.5-35.4,3.5c-4.3,0-6.9-1.7-9.5-8.6c-5.2-13.8-8.6-24.2-13-36.3h-58.8V4112.6z
			 M5779.6,4086.6c-11.2-32-19-51.8-21.6-59.6c-6,16.4-13,37.2-21.6,59.6H5779.6z"/>
	</g>
	<g>
		<path fill="#FFFFFF" d="M5865.1,4024.4c0-13,0-24.2-0.9-36.3c6.9-1.7,26.8-3.5,46.7-3.5c43.2,0,72.6,13.8,72.6,56.2
			c0,40.6-35.4,54.4-51.8,55.3c-3.5,0-10.4,0-13.8-1.7c-4.3-2.6-10.4-11.2-10.4-20.7c1.7,0,4.3,0,6,0c13.8,0,28.5-6.9,28.5-32.8
			c0-22.5-14.7-32-30.2-32c-2.6,0-6,0-8.6,0.9v114.9c0,19,0.9,26.8,0.9,32c-4.3,1.7-25.1,2.6-33.7,2.6c-4.3,0-6-0.9-6-5.2v-129.6
			H5865.1z"/>
	</g>
	<g>
		<path fill="#FFFFFF" d="M6051.8,4090.1c0-5.2-0.9-9.5-2.6-13c-14.7-26.8-37.2-61.3-54.4-86.4v-0.9c10.4-2.6,26.8-5.2,33.7-5.2
			c5.2,0,6.9,0.9,14.7,13c9.5,15.6,20.7,37.2,32,56.2c12.1-19.9,34.6-59.6,39.7-69.1c11.2,0,22.5,1.7,26.8,3.5
			c4.3,1.7,3.5,5.2,0,11.2c-6,11.2-46.7,70.8-48.4,75.2c-2.6,4.3-3.5,8.6-3.5,12.1v36.3c0,18.1,0.9,26.8,0.9,32.8
			c-6.9,1.7-16.4,2.6-34.6,2.6c-4.3,0-5.2-0.9-5.2-5.2v-63.1H6051.8z"/>
	</g>
	<g>
		<path fill="#FFFFFF" d="M4582.1,4378.7c0,5.2-1.7,6-5.2,6.9c-6,0.9-16.4,0.9-19.9,0.9c0.9-11.2,0.9-27.6,0.9-51v-93.3
			c0-13.8,0-19.9-0.9-29.4c7.8-1.7,29.4-4.3,41.5-4.3c37.2,0,61.3,13,61.3,49.2c0,27.6-23.3,40.6-34.6,45.8
			c6.9,5.2,15.6,17.3,25.9,35.4c13.8,23.3,25.1,38,31.1,43.2v1.7c-1.7,1.7-8.6,2.6-16.4,2.6c-7.8,0-14.7-3.5-22.5-13.8
			c-9.5-13.8-13.8-21.6-24.2-38.9c-11.2-17.3-16.4-22.5-31.1-22.5h-7.8v67.4H4582.1z M4582.1,4295.7c10.4,0.9,26.8,0,30.2-1.7
			c10.4-3.5,22.5-13.8,22.5-33.7c0-26.8-18.1-35.4-36.3-35.4c-6,0-12.1,0.9-16.4,1.7V4295.7z"/>
	</g>
	<g>
		<path fill="#FFFFFF" d="M4789.5,4363.1c0,8.6-6,16.4-10.4,19c-4.3,2.6-16.4,6-26.8,6c-38.9,0-59.6-23.3-59.6-62.2
			c0-35.4,20.7-66.5,57.9-66.5c32,0,44.9,23.3,45.8,45.8c0,2.6,0,6.9-0.9,8.6c-0.9,4.3-13.8,8.6-24.2,9.5
			c-7.8,0.9-35.4,1.7-54.4,0.9c0,28.5,17.3,44.9,42.3,44.9C4769.6,4369.2,4783.4,4364.8,4789.5,4363.1L4789.5,4363.1z M4716,4309.5
			c19.9,0.9,44.9,0,50.1,0c3.5,0,6-2.6,6-6c0-16.4-8.6-29.4-25.9-29.4C4732.4,4274.1,4718.6,4286.2,4716,4309.5"/>
	</g>
	<g>
		<path fill="#FFFFFF" d="M4843,4278.4c11.2-9.5,24.2-19,41.5-19c31.1,0,40.6,25.1,40.6,51v38c0,17.3,0,28.5,0.9,35.4
			c-6,0.9-13,1.7-20.7,1.7c-2.6,0-4.3-1.7-4.3-4.3c0-7.8,0-44.9,0-69.1c0-25.1-12.1-34.6-26.8-34.6c-13.8,0-25.9,9.5-31.1,14.7v85.5
			c0,4.3-1.7,6-5.2,6.9c-6.9,0.9-13,0.9-19,0.9c0.9-10.4,0.9-26.8,0.9-51v-104.5c0-17.3-0.9-25.1-0.9-31.1c6-1.7,16.4-3.5,20.7-3.5
			c2.6,0,4.3,1.7,4.3,18.1v64.8H4843z"/>
	</g>
	<g>
		<path fill="#FFFFFF" d="M5055.6,4370c0.9,11.2-6,17.3-17.3,17.3c-12.1,0-18.1-7.8-19.9-17.3c-7.8,8.6-20.7,17.3-35.4,17.3
			c-19,0-32-13.8-32-31.1c0-30.2,38.9-38,53.6-41.5c5.2-0.9,10.4-1.7,13.8-2.6v-7.8c0-13-7.8-25.9-24.2-25.9
			c-10.4,0-20.7,5.2-28.5,10.4c-7.8,2.6-11.2-3.5-12.1-10.4c8.6-7.8,27.6-19,45.8-19c28.5,0,41.5,19.9,41.5,46.7
			c0,12.1-0.9,38.9-0.9,55.3c0,6,3.5,8.6,9.5,8.6C5051.3,4370,5053.9,4370,5055.6,4370L5055.6,4370z M4992.5,4370
			c11.2,0,19.9-6.9,23.3-13c1.7-1.7,1.7-4.3,1.7-9.5V4326c-22.5,3.5-44.1,11.2-44.1,26.8C4973.5,4363.1,4982.1,4370,4992.5,4370"/>
	</g>
	<g>
		<path fill="#FFFFFF" d="M5104,4272.4c10.4-6,25.1-13,37.2-13c25.1,0,51.8,18.1,51.8,58.8c0,43.2-32.8,70-73.4,70
			c-13.8,0-27.6-3.5-33.7-6.9c-3.5-1.7-4.3-3.5-4.3-7.8v-141.7c0-17.3-0.9-25.1-0.9-31.1c5.2-1.7,16.4-3.5,19.9-3.5
			s4.3,1.7,4.3,18.1v57H5104z M5104,4369.2c5.2,1.7,12.1,2.6,17.3,2.6c24.2,0,46.7-16.4,46.7-51c0-26.8-15.6-43.2-38.9-43.2
			c-6.9,0-18.1,3.5-25.1,7.8V4369.2z"/>
	</g>
	<g>
		<path fill="#FFFFFF" d="M5246.5,4217.1c0,7.8-5.2,13.8-13.8,13.8c-7.8,0-13.8-4.3-13.8-13.8c0-9.5,7.8-13.8,13.8-13.8
			C5241.3,4203.3,5246.5,4208.5,5246.5,4217.1 M5244.8,4377.8c0,5.2-1.7,6.9-5.2,6.9c-3.5,0.9-11.2,0.9-18.1,1.7
			c0-11.2,0.9-26.8,0.9-44.1v-46.7c0-17.3-0.9-25.9-1.7-31.1c4.3-1.7,16.4-2.6,20.7-2.6c2.6,0,4.3,1.7,4.3,17.3v98.5H5244.8z"/>
	</g>
	<g>
		<path fill="#FFFFFF" d="M5282.8,4230.1c0-16.4-0.9-25.1-0.9-31.1c5.2-2.6,16.4-3.5,19.9-3.5s4.3,1.7,4.3,18.1v133.9
			c0,13.8,0.9,28.5,1.7,36.3c-5.2,1.7-18.1,1.7-20.7,1.7s-3.5-0.9-3.5-3.5v-152.1H5282.8z"/>
	</g>
	<g>
		<path fill="#FFFFFF" d="M5369.2,4217.1c0,7.8-5.2,13.8-13.8,13.8c-7.8,0-13.8-4.3-13.8-13.8c0-9.5,7.8-13.8,13.8-13.8
			C5364.9,4203.3,5369.2,4208.5,5369.2,4217.1 M5367.5,4377.8c0,5.2-1.7,6.9-5.2,6.9c-3.5,0.9-11.2,0.9-18.1,1.7
			c0-11.2,0.9-26.8,0.9-44.1v-46.7c0-17.3-0.9-25.9-1.7-31.1c5.2-1.7,16.4-2.6,20.7-2.6c2.6,0,3.5,1.7,3.5,17.3V4377.8
			L5367.5,4377.8z"/>
	</g>
	<g>
		<path fill="#FFFFFF" d="M5472.9,4364c0.9,6,0.9,11.2-4.3,15.6c-5.2,4.3-16.4,7.8-25.9,7.8c-24.2,0-34.6-15.6-34.6-36.3v-71.7
			c-9.5,0-13-2.6-13-6c2.6-6,19.9-21.6,24.2-25.1c3.5-3.5,7.8-6,13.8-6.9c-0.9,8.6-0.9,15.6-0.9,21.6h44.1
			c-2.6,13.8-8.6,14.7-13.8,15.6c-9.5,0.9-10.4,0.9-31.1,0.9c-1.7,28.5-1.7,58.8,0,70c1.7,16.4,10.4,20.7,19.9,20.7
			C5459.1,4370,5466.8,4367.4,5472.9,4364L5472.9,4364z"/>
	</g>
	<g>
		<path fill="#FFFFFF" d="M5594.7,4370c0.9,11.2-6,17.3-18.1,17.3c-11.2,0-17.3-7.8-19-17.3c-7.8,8.6-20.7,17.3-35.4,17.3
			c-19,0-32.8-13.8-32.8-31.1c0-30.2,38.9-38,54.4-41.5c5.2-0.9,10.4-1.7,13.8-2.6v-7.8c0-13-7.8-25.9-24.2-25.9
			c-10.4,0-20.7,5.2-28.5,10.4c-7.8,2.6-11.2-3.5-12.1-10.4c8.6-7.8,26.8-19,45.8-19c27.6,0,41.5,19.9,41.5,46.7
			c0,12.1-0.9,38.9-0.9,55.3c0,6,3.5,8.6,9.5,8.6C5590.4,4370,5593,4370,5594.7,4370L5594.7,4370z M5531.6,4370
			c12.1,0,19.9-6.9,23.3-13c1.7-1.7,1.7-4.3,1.7-9.5V4326c-22.5,3.5-44.1,11.2-44.1,26.8C5513.5,4363.1,5521.3,4370,5531.6,4370"/>
	</g>
	<g>
		<path fill="#FFFFFF" d="M5685.4,4364c1.7,6,0.9,11.2-4.3,15.6c-6,4.3-16.4,7.8-25.9,7.8c-24.2,0-34.6-15.6-34.6-36.3v-71.7
			c-9.5,0-13.8-2.6-13.8-6c2.6-6,20.7-21.6,24.2-25.1s7.8-6,13.8-6.9c-0.9,8.6-1.7,15.6-1.7,21.6h44.1c-2.6,13.8-8.6,14.7-13.8,15.6
			c-9.5,0.9-11.2,0.9-31.1,0.9c-0.9,28.5-0.9,58.8,0,70c1.7,16.4,10.4,20.7,19.9,20.7S5680.3,4367.4,5685.4,4364L5685.4,4364z"/>
	</g>
	<g>
		<path fill="#FFFFFF" d="M5733.8,4217.1c0,7.8-5.2,13.8-13,13.8s-13.8-4.3-13.8-13.8c0-9.5,7.8-13.8,13.8-13.8
			C5729.5,4203.3,5733.8,4208.5,5733.8,4217.1 M5733,4377.8c0,5.2-1.7,6.9-5.2,6.9c-4.3,0.9-10.4,0.9-19,1.7
			c0-11.2,0.9-26.8,0.9-44.1v-46.7c0-17.3-0.9-25.9-0.9-31.1c4.3-1.7,16.4-2.6,20.7-2.6c2.6,0,4.3,1.7,4.3,17.3v98.5H5733z"/>
	</g>
	<g>
		<path fill="#FFFFFF" d="M5882.4,4322.5c0,37.2-23.3,64.8-61.3,64.8c-40.6,0-60.5-29.4-60.5-63.1c0-36.3,25.9-65.7,62.2-65.7
			C5862.6,4259.4,5882.4,4287.1,5882.4,4322.5 M5785.7,4321.6c0,33.7,17.3,51,38,51c16.4,0,33.7-13.8,33.7-48.4
			c0-25.9-11.2-49.2-36.3-49.2C5802.1,4275,5785.7,4291.4,5785.7,4321.6"/>
	</g>
	<g>
		<path fill="#FFFFFF" d="M5993,4310.4c0-21.6-10.4-32-25.9-32c-13.8,0-25.1,9.5-31.1,17.3v82.9c0,6-0.9,6.9-6,6.9
			c-6,0.9-12.1,0.9-18.1,0.9c0.9-10.4,0.9-26.8,0.9-51v-46.7c0-10.4-0.9-14.7-4.3-17.3v-0.9c2.6-4.3,10.4-9.5,15.6-9.5
			c8.6,0,11.2,13,12.1,20.7c10.4-11.2,25.9-20.7,40.6-20.7c32,0,40.6,24.2,40.6,51v38.9c0,16.4,0.9,27.6,1.7,34.6
			c-6,0.9-13.8,1.7-20.7,1.7c-3.5,0-4.3-1.7-4.3-4.3L5993,4310.4z"/>
	</g>
</g>
<g>
	<g>
		<g>
			<g>
				<path fill="#FFFFFF" d="M4373,4154.9c-19.9,0-38.9-8.6-52.7-23.3c-25.9-29.4-24.2-74.3,5.2-100.2c13-12.1,30.2-18.1,47.5-18.1
					c19.9,0,38.9,8.6,52.7,23.3c25.9,29.4,24.2,74.3-5.2,100.2C4407.6,4148,4390.3,4154.9,4373,4154.9z M4373,4033.1
					c-13,0-25.1,4.3-34.6,13c-20.7,19-22.5,51-3.5,71.7c9.5,10.4,23.3,16.4,37.2,16.4c13,0,25.1-5.2,33.7-13
					c20.7-19,22.5-51,3.5-71.7C4400.7,4039.1,4386.8,4033.1,4373,4033.1z"/>
			</g>
		</g>
	</g>
</g>
<g>
	<g>
		<g>
			<path fill="#FFFFFF" d="M4152.7,4216.2v273.9c0,0,91.6,0,91.6-91.6c0-91.6,0-91.6,0-91.6h91.6c0,0,91.6,0,91.6-91.6h-274.8
				V4216.2z"/>
		</g>
	</g>
</g>
<g>
	<g>
		<g>
			<path fill="#FFFFFF" d="M4262.4,4178.2h-292.9v-9.5c0-99.4,99.4-100.2,100.2-100.2h82.1v-82.1c0-99.4,99.4-100.2,100.2-100.2h9.5
				v292H4262.4z M3988.5,4160.1h255.7v-254.9c-21.6,2.6-72.6,16.4-72.6,81.2v100.2h-101.1
				C4067.2,4087.5,3994.6,4088.4,3988.5,4160.1z"/>
		</g>
	</g>
</g>
</svg>
