<?xml version="1.0" encoding="utf-8"?>
<!-- Generator: Adobe Illustrator 18.0.0, SVG Export Plug-In . SVG Version: 6.00 Build 0)  -->
<!DOCTYPE svg PUBLIC "-//W3C//DTD SVG 1.1//EN" "http://www.w3.org/Graphics/SVG/1.1/DTD/svg11.dtd">
<svg version="1.1" id="Layer_1" xmlns="http://www.w3.org/2000/svg" xmlns:xlink="http://www.w3.org/1999/xlink" x="0px" y="0px"
	 viewBox="0 0 500 500" enable-background="new 0 0 500 500" xml:space="preserve">
<path fill="#8BA9B3" d="M343.4,197.1c1.8-1.3,2.3-3.4,2.9-5.3c1.3-4.2,2.6-8.4,3.8-12.6c0.2-0.8,0.3-1.7,0.6-2.4
	c9-23.2,18-46.4,27-69.7c5.8-13.7,10.3-27.8,17.3-40.9c0.7-1.4,1.2-3.1,1.5-4.7c1.3-7.2-1.8-11.3-9.1-11.7c-7.5-0.4-14.9-0.8-22.4-1
	c-21.8-0.6-43.5,0.8-64.7,6.7c-2.3-8-5.5-15.6-10.8-22.2c-0.8-1-1.2-2.7-3.2-2c-1.5,0.9-2.2,2.5-2.7,4c-2.8,7.6-5.4,15.2-5.8,23.3
	c-0.3,5.6-2.6,9.2-7.3,12.4c-17.7,12-34.6,25.1-47.3,42.6c-1.2,1.6-2.6,2.4-4.5,2.6c-6.3,0.8-12.7,1.2-19.1,0.3
	c-18.9-2.9-35.7,2-50.7,13.7c-1.1,0.8-2.1,1.8-3.6,2c-0.6-0.4-1.2-0.7-1.7-1.2c-11-13-22.2-25.8-32.7-39.3c-1.4-1.8-2.7-4-5.1-4.7
	c-3.1-1.9-4,0.5-4.8,2.6c-1.6,4.2-2.2,8.6-2.5,13.1c-1.9,28.1,2.7,55.1,14.2,80.8c3.2,7.2,5.4,14.1,3.2,21.9
	c-0.3,1.3-0.2,2.8-0.2,4.2c-0.1,4.3,0.4,4.7,4.5,2.8c5.9-2.8,6-2.8,9.5,2.7c12.9,19.8,29.3,36.2,47.7,50.8c2.2,1.8,3.5,3.7,4.2,6.3
	c3.1,11.3,5.5,23,11,33.6c0.6,1.2,0.8,2.7,0.8,4c0.8,12.3,1.5,24.7,2.3,37c1.2,16.8,2.8,33.5,8.2,49.6c2.2,6.4,1,12.5-2.9,17.8
	c-4.2,5.8-6.5,12.2-8.1,19c-1,4.3-1.2,8.8-0.1,13.3c1.8,7.8,8,10.5,14.9,12.1c18.9,4.5,37.9,8.8,57.3,10.2
	c9.2,0.7,18.3,0.9,27.4-0.8c3.8-0.7,6.7-2,7.8-6.2c2.1-8.7-1-16.2-9-20.3c-12.5-6.3-25.5-11.7-39.2-14.7c-1.9-0.4-3.4-1.2-4.2-3
	c-2.2-5.8-3.2-11.6-0.5-17.4c1.4-3,2-6,2.3-9.3c1.2-10.7,2.3-21.5,3.6-32.2c0.2-1.2-0.1-2.8,1.3-3.2c1.2-0.4,1.9,0.9,2.6,1.8
	c2.5,3.2,4.9,6.4,7.2,9.6c2.1,2.8,2.2,5.2-0.5,8c-7.3,7.6-9.8,16.8-8.2,27.3c0.7,4.7,3.2,7.6,7.6,8.9c6.2,1.8,12.5,3.8,18.8,5.2
	c20.8,4.8,41.8,7.5,63.2,4.5c5.8-0.8,8.8-3.1,9.8-8.6c1.9-10.5-0.2-15.8-8.2-19.2c-12.1-5.2-23.9-11.2-36.3-15.7
	c-2-0.8-3.6-1.6-3.8-3.8c-0.5-4.8-1.7-9.7-0.9-14.5c1.1-7.8-1.3-14.8-5.6-20.8c-3.2-4.5-5.1-9.4-7.4-14.2c-2.2-4.4-2.8-9.7-6.3-13.4
	c-0.2-3.2-1.9-6.1,0.1-9.6c5.2-9,9.4-18.6,14.8-27.4c12.2-20,24.2-40.1,33.8-61.5C338.4,210.8,341.9,204.3,343.4,197.1z"/>
<path fill="#3878AA" d="M145.6,132.2c1.5-0.2,2.5-1.2,3.6-2c15-11.7,31.8-16.5,50.7-13.7c6.3,1,12.8,0.4,19.1-0.3
	c1.9-0.2,3.3-1.1,4.5-2.6c12.8-17.5,29.7-30.6,47.3-42.6c4.8-3.3,7-6.8,7.3-12.4c0.5-8.1,3.1-15.8,5.8-23.3c0.6-1.6,1.2-3.1,2.7-4
	c-2,10.3-3.4,20.7-2.2,31.8c5.7-2.7,11.1-4.6,16-7.7c21.2-5.9,42.8-7.2,64.7-6.7c7.5,0.2,14.9,0.5,22.4,1c7.2,0.4,10.4,4.6,9.1,11.8
	c-0.3,1.6-0.8,3.2-1.5,4.7c-7,13.1-11.6,27.2-17.3,40.9c-1.3-0.2-2.3,0.4-3.5,0.9c-25.2,11.8-47.4,27.6-66.8,47.5
	c-19.8,20.3-35.4,43.2-41.4,71c-7.2,32.8-9.3,66.2-5.7,99.8c0.5,4.9,2.8,8.6,7.3,10.2c4.6,1.7,7.6-1.5,10.2-4.7
	c4-4.7,6.3-10.3,8.8-15.9c3.5,3.8,4.2,9,6.3,13.4c2.4,4.8,4.2,9.8,7.4,14.2c4.2,6,6.7,13,5.6,20.8c-0.7,4.8,0.4,9.7,0.9,14.5
	c0.2,2.3,1.8,3.2,3.8,3.8c12.4,4.5,24.2,10.5,36.3,15.7c8,3.4,10.2,8.8,8.2,19.2c-1,5.5-4.1,7.8-9.8,8.6c-21.4,3-42.3,0.3-63.2-4.5
	c-6.3-1.5-12.6-3.4-18.8-5.2c-4.5-1.2-6.9-4.2-7.6-8.9c-1.5-10.4,0.9-19.6,8.2-27.3c2.8-2.8,2.6-5.2,0.5-8c-2.4-3.2-4.8-6.5-7.2-9.6
	c-0.7-0.8-1.4-2.2-2.6-1.8c-1.4,0.4-1.2,2.1-1.3,3.2c-1.2,10.8-2.4,21.5-3.6,32.2c-0.3,3.2-0.9,6.2-2.3,9.3
	c-2.7,5.8-1.7,11.7,0.5,17.4c0.8,1.8,2.3,2.6,4.2,3c13.8,3,26.8,8.3,39.2,14.7c8,4.1,11.1,11.6,9,20.3c-1,4.3-4,5.6-7.8,6.2
	c-9.1,1.6-18.2,1.4-27.4,0.8c-19.4-1.4-38.4-5.7-57.3-10.2c-6.9-1.7-13.1-4.3-14.9-12.1c-1.1-4.3-0.9-8.8,0.1-13.3
	c1.6-6.8,3.8-13.2,8.1-19c3.9-5.2,5.1-11.3,2.9-17.8c-5.3-16.1-7.1-32.8-8.2-49.6c-0.8-12.3-1.5-24.7-2.3-37c-0.1-1.3-0.3-2.8-0.8-4
	c-5.5-10.6-7.9-22.2-11-33.6c-0.7-2.7-2-4.6-4.2-6.3c-18.4-14.6-34.8-31-47.7-50.8c-3.6-5.4-3.6-5.4-9.5-2.7
	c-4.1,1.8-4.6,1.6-4.5-2.8c0-1.4-0.1-2.8,0.2-4.2c2.2-7.8-0.1-14.8-3.2-21.9c-11.5-25.7-16.1-52.7-14.2-80.8
	c0.3-4.4,0.9-8.8,2.5-13.1c0.8-2.1,1.8-4.4,4.8-2.6c-1.4,0.9-1.7,2.5-1.9,4c-0.7,3.8-0.6,7.5-0.1,11.2c3.5,29.2,10.9,57.5,23,84.4
	c12.4,27.7,28.7,52.7,53.2,71.3c10.5,8,21.3,15.6,33.8,20.2c1.8,0.7,3.5,1.4,5.4-0.2c10.5-9,20.1-18.8,26.2-31.4
	c3.1-6.3,4.7-13.1,2.8-20.2c-0.5-1.8-1.2-2.8-3.3-2.6c-5.4,0.7-10.4-0.8-15.3-3c-9-4.1-16.8-9.9-23.2-17.2
	c-20.1-22.8-39.9-45.8-59.9-68.8C146.1,134,145.9,133.1,145.6,132.2z M237.2,145.2c9.3,6.7,20,4.2,26-5c6.1-9.4,4.3-21.2-5-26.7
	c4.3,7.9,3.7,15.2-0.5,22.1C253.3,142.7,247.1,146.6,237.2,145.2z M253.3,118.6c-0.4-2.2-1.6-3.9-4-3.9c-2.4,0-3.8,1.6-3.8,3.9
	c0,2.5,1.6,3.8,3.9,3.8C251.8,122.6,253,120.9,253.3,118.6z"/>
<path fill="#FBFCFE" d="M145.6,132.2c0.2,0.9,0.5,1.8,1.2,2.6c20,22.9,39.8,45.9,59.9,68.8c6.5,7.3,14.3,13.2,23.2,17.3
	c4.9,2.2,9.9,3.7,15.3,3c2.3-0.2,2.9,0.8,3.3,2.6c1.8,7.2,0.2,13.8-2.8,20.2c-6.1,12.7-15.7,22.4-26.2,31.4
	c-1.9,1.7-3.6,0.9-5.4,0.2c-12.5-4.7-23.2-12.2-33.8-20.2c-24.6-18.7-40.7-43.7-53.2-71.3c-12.1-26.9-19.5-55.2-23-84.4
	c-0.4-3.8-0.6-7.5,0.1-11.2c0.2-1.5,0.5-3,1.9-4c2.5,0.7,3.7,2.8,5.1,4.7C121.8,105.2,133,118,144,131
	C144.4,131.5,145.1,131.8,145.6,132.2z"/>
<path fill="#FBFCFE" d="M286.8,316c-2.5,5.6-4.8,11.2-8.8,15.9c-2.7,3.1-5.7,6.2-10.2,4.7c-4.6-1.7-6.8-5.3-7.3-10.2
	c-3.6-33.6-1.4-67,5.7-99.8c6-27.8,21.7-50.7,41.4-71c19.4-19.9,41.6-35.8,66.8-47.5c1.2-0.5,2.2-1.2,3.5-0.9
	c-9,23.2-18,46.4-27,69.7c-0.3,0.7-0.4,1.6-0.6,2.4c-4,0-6.6,2.3-6.2,5.7c0.2,1.6-0.3,2.8-1.6,3.5c-1.3,0.8-2.8,0.6-3.8-0.7
	c-2.6-3.2-3.2-2-3.3,1.3c0,1.4-0.8,2.7-2.4,3c-1.2,0.2-2.3-0.1-2.9-1.2c-2-3.5-3.4-2.8-4.8,0.5c-0.5,1.3-1.5,2.4-3.1,2.4
	c-1.8,0-1.8-1.3-1.8-2.6c0-0.7-0.3-1.1-1-1c-0.8,0.1-1,0.7-1.3,1.3c-2.9,6.2-5.5,6.5-9.7,1c-1.6,0.8-0.9,2.4-1.3,3.7
	c-1,3.1-4.1,3.9-6.5,1.7c-0.8-0.7-0.8-2.9-2.6-1.8c-1.4,0.9,0.1,2.2,0.3,3.3c0.5,2.2,0.5,4.4-1.8,5.4c-2.1,0.9-4.2,0.7-6.2-1.2
	c-0.8-0.8-0.1-3.1-2.1-2.4c-1.7,0.6-0.4,2.2-0.5,3.3c-0.1,1.6,0,3.1-1.6,4c-1.6,0.9-2.9,0.6-3.9-1c-0.6-1-1.3-0.8-2-0.2
	c-3.1,2.8-5.7,6.1-8.2,11c8.5-4.1,16-7,24-8.7c2.1-0.4,4-0.5,4.4-3.3c0.2-1.6,1.8-2.9,3.8-2.8c1.9,0.1,2.3,1.8,2.5,3.3
	c0.1,0.5,0.1,1.2,0.4,1.1c1.2-0.2,1.2-0.8,1.2-1.3c0.2-3,2.2-4.6,4.8-4.9c3-0.3,2.2,2.4,2.5,4.2c0.1,0.6,0.2,1.1,0.9,1.2
	c0.8,0.1,1.2-0.5,1.2-1.2c-0.2-1.2-0.1-2.2,0.5-3.2c0.8-1.2,1.6-2.3,3.2-2.4c1.2,0,1.5,1,1.8,1.9c0.3,1-0.8,2.8,1.3,2.8
	c1.9,0,1.2-1.7,1.4-2.8c0.2-1.5,1-2.7,2.4-3.1c1.8-0.5,2,0.8,2.2,2.2c0.1,0.9,0.7,1.1,1.5,1c0.9-0.2,1.6-0.6,1.7-1.6
	c0.1-1.2,0-2.5,0.3-3.8c0.2-1.3,1.2-2.2,2.6-2.3c1.1-0.1,2.6,0,2.7,1.2c0.5,3.4,2.4,1.8,4.1,1.3c-1.5,7.2-5,13.8-8,20.4
	c-9.5,21.4-21.6,41.5-33.8,61.5c-5.4,8.8-9.7,18.4-14.8,27.4C284.9,309.9,286.7,312.8,286.8,316z"/>
<path d="M343.4,197.1c-1.6,0.4-3.5,2.1-4.1-1.3c-0.2-1.2-1.7-1.2-2.8-1.2c-1.4,0.1-2.3,1-2.6,2.3c-0.2,1.2-0.2,2.5-0.3,3.8
	c-0.1,1-0.8,1.4-1.7,1.6c-0.7,0.2-1.3-0.1-1.5-1c-0.2-1.3-0.4-2.7-2.2-2.2c-1.4,0.4-2.2,1.6-2.4,3.1c-0.1,1.2,0.5,2.8-1.4,2.8
	c-2.1,0-1-1.8-1.3-2.8c-0.2-0.9-0.5-2-1.8-1.9c-1.6,0-2.4,1.2-3.2,2.4c-0.6,1-0.7,2.1-0.5,3.2c0.2,0.8-0.3,1.3-1.2,1.2
	c-0.7-0.1-0.8-0.5-0.9-1.2c-0.2-1.8,0.5-4.5-2.5-4.2c-2.6,0.3-4.6,1.9-4.8,4.9c0,0.5,0,1.2-1.2,1.3c-0.3,0-0.3-0.6-0.4-1.1
	c-0.3-1.5-0.7-3.2-2.5-3.3c-1.8-0.1-3.4,1.2-3.8,2.8c-0.5,2.8-2.4,2.9-4.4,3.3c-8,1.7-15.5,4.7-24,8.7c2.5-4.9,5.1-8.1,8.2-11
	c0.7-0.7,1.4-0.8,2,0.2c0.9,1.6,2.2,2,3.9,1c1.6-0.9,1.5-2.5,1.6-4c0.1-1.2-1.2-2.8,0.5-3.3c2-0.7,1.2,1.6,2.1,2.4
	c1.8,1.8,4.1,2.1,6.2,1.2c2.2-1,2.2-3.2,1.8-5.4c-0.2-1.1-1.8-2.4-0.3-3.3c1.8-1.2,1.8,1.1,2.6,1.8c2.4,2.2,5.5,1.4,6.5-1.7
	c0.4-1.2-0.2-2.8,1.3-3.7c4.2,5.6,6.8,5.3,9.7-1c0.3-0.7,0.6-1.3,1.3-1.3c0.7-0.1,1,0.4,1,1c0,1.3,0.1,2.6,1.8,2.6
	c1.6,0,2.6-1.1,3.1-2.4c1.2-3.3,2.7-4,4.8-0.5c0.6,1,1.8,1.4,2.9,1.2c1.6-0.3,2.4-1.6,2.4-3c0.1-3.3,0.8-4.5,3.3-1.3
	c1,1.2,2.3,1.5,3.8,0.7c1.3-0.8,1.8-1.9,1.6-3.5c-0.3-3.3,2.2-5.7,6.2-5.7c-1.2,4.2-2.4,8.4-3.8,12.6
	C345.8,193.8,345.2,195.8,343.4,197.1z"/>
<path fill="#FBFCFE" d="M300.6,55.5c-4.9,3.1-10.3,5.1-16,7.7c-1.2-11.2,0.2-21.5,2.2-31.8c1.9-0.7,2.3,0.9,3.2,2
	C295.1,39.9,298.2,47.5,300.6,55.5z"/>
<path fill="#FBFCFE" d="M253.3,118.6c-0.3,2.3-1.5,4-4,3.9c-2.3,0-3.9-1.3-3.9-3.8c0-2.4,1.4-3.9,3.8-3.9
	C251.8,114.7,252.9,116.3,253.3,118.6z"/>
<path fill="#221F20" d="M236.5,144.3c-9.7-9.1-5.1-27.2,8.1-32.2c4.9-1.8,9.6-2.4,13.7,1.7c2.1,0.5,2.8,2.2,3.4,4
	c3.7,11.3-5.6,26.7-17.3,28.8c-1.7,0.3-3.4,0.2-5-0.4C238.4,145.5,237.1,145.4,236.5,144.3z"/>
<path fill="#F3F3F3" d="M253.4,118.1c-0.5,2.7-1.8,4.3-4.5,4.2c-2.5-0.1-4-1.6-4-4.1c0-2.6,1.4-4.3,4.2-4.3
	C251.9,113.9,253.1,115.7,253.4,118.1z"/>
<path fill="#FBFCFE" d="M237.2,145.2c9.8,1.4,16.1-2.5,20.5-9.7c4.2-6.9,4.9-14.2,0.5-22.1c9.2,5.5,11.1,17.4,5,26.7
	C257.2,149.4,246.5,151.8,237.2,145.2z"/>
<path fill="#050F1A" d="M228.6,189.8c-0.4-0.1-0.9-0.1-1.3-0.3c-1.5-0.6-3-1.3-4.3-2.1c-2.1-1.3-4.2-2.8-6.2-4.4
	c-1.9-1.6-3.7-3.2-5.3-5.1c-1.6-1.9-3-3.9-4.1-6.1c-0.6-1.1-1.1-2.3-1.5-3.5c-0.2-0.6-0.4-1.2-0.6-1.9c-0.2-0.6-0.4-1.3-0.5-1.9
	c-0.2-2.3,0.5-4.8-1.3-7.6c-0.4,4-1.1,7.2,0.3,10.3c2.3,11,9.4,17.7,19.4,21.9c0.9,1,2.2,1.3,3.4,1.7c1.6,1,3.3,1.4,5.5,1.3
	c0,0-0.3-0.4-0.4-0.5c-0.1-0.2-0.3-0.3-0.5-0.4c-0.3-0.3-0.7-0.5-1.1-0.6c-0.5-0.2-1.1-0.4-1.6-0.6
	C228.6,189.8,228.6,189.8,228.6,189.8z"/>
<path fill="#050F1A" d="M225.1,197.4c-0.1,0.1-0.3,0.2-0.5,0.2C224.8,197.5,225,197.4,225.1,197.4c-0.9-0.3-1.7-0.5-2.6-0.8h0
	c-1.7-1-3.3-2-5-3c-7.4-4.2-14.1-9.3-17.7-17.3l0,0c-0.3-1.1-0.6-2.2-1-3.3c0,0,0,0,0,0c0-1.5,0.2-3.1-1.6-4.7
	c0.1,2.9-0.6,5.2,0.7,7.3c0.2,0.6,0.5,1.2,0.7,1.8c0.1,0.2,0.2,0.5,0.3,0.7c4.3,10.3,12.9,15.6,22.8,19.4c0,0,0,0,0,0
	c0.5,0.3,1.1,0.6,1.6,0.9c0,0,0,0,0,0c1.9,1,3.8,1.9,6.3,1.4C228.3,198.1,226.7,197.7,225.1,197.4z"/>
<path fill="#050F1A" d="M227.6,179.7C227.6,179.7,227.6,179.7,227.6,179.7C227.6,179.7,227.6,179.7,227.6,179.7
	c-0.8-0.6-1.7-1.1-2.5-1.7v0c0,0,0,0,0,0c-1.9-1.7-3.9-3.5-5.8-5.2v0c-5.9-6.9-9.8-14.6-8.5-24.7c-4.1,7.5-1.4,17.2,6.4,25
	c1.8,2.6,4.5,4.1,7,5.8c0.9,0.6,1.7,1.1,2.6,1.7l0,0l0,0c0.5,0.7,1.2,1.7,1.8,1.1C229.8,180.6,228.4,180.1,227.6,179.7z"/>
<path fill="#050F1A" d="M229.4,170.3C229.4,170.3,229.4,170.3,229.4,170.3c-0.8-0.9-1.6-1.8-2.5-2.6c0,0,0,0,0,0
	c-6-7.9-10.8-16.3-10.7-26.7c-2.7,11.3,2.3,19.9,9.7,27.7c0.9,0.8,1.7,1.6,2.6,2.5c0.4,0.7,1.2,1.8,1.7,1.3
	C231.2,171.7,230,171,229.4,170.3z"/>
<path fill="#266794" d="M148.1,131.7c0.3,0.9,0.5,1.8,1.1,2.5c9.9,11.4,19.8,22.8,29.7,34.2c2.9,3.3,5.7,6.5,8.6,9.8
	c1.3-0.6,1.8-1.8,2.5-3c4.3-7.8,8.6-15.6,12.9-23.4c6.6-12,13.2-24,19.9-35.9c0.1-0.2,0.2-0.3,0.3-0.5c-0.5,0.2-1,0.3-1.6,0.4
	c-6.3,0.7-12.8,1.2-19.1,0.2c-18.9-2.8-35.7,2-50.7,13.7C150.6,130.6,149.6,131.6,148.1,131.7z"/>
</svg>
