<?xml version="1.0" encoding="utf-8"?>
<!-- Generator: Adobe Illustrator 18.0.0, SVG Export Plug-In . SVG Version: 6.00 Build 0)  -->
<!DOCTYPE svg PUBLIC "-//W3C//DTD SVG 1.1//EN" "http://www.w3.org/Graphics/SVG/1.1/DTD/svg11.dtd">
<svg version="1.1" id="Layer_1" xmlns="http://www.w3.org/2000/svg" xmlns:xlink="http://www.w3.org/1999/xlink" x="0px" y="0px"
	 viewBox="0 0 600 600" enable-background="new 0 0 600 600" xml:space="preserve">
<path fill="#8BA9B3" d="M412.1,236.5c2.2-1.6,2.8-4.1,3.5-6.4c1.6-5,3.1-10.1,4.6-15.1c0.2-1,0.4-2,0.7-2.9
	c10.8-27.9,21.6-55.7,32.4-83.6c6.9-16.4,12.4-33.3,20.8-49.1c0.9-1.7,1.5-3.7,1.8-5.7c1.6-8.6-2.2-13.6-10.9-14.1
	c-9-0.5-17.9-0.9-26.9-1.2c-26.2-0.7-52.2,0.9-77.6,8c-2.8-9.6-6.6-18.7-12.9-26.6c-1-1.2-1.5-3.2-3.8-2.4c-1.8,1.1-2.7,3-3.3,4.8
	c-3.3,9.1-6.5,18.2-7,28c-0.4,6.7-3.1,11-8.8,14.9c-21.2,14.4-41.5,30.1-56.8,51.1c-1.4,1.9-3.1,2.9-5.4,3.1
	c-7.6,0.9-15.2,1.5-22.9,0.3c-22.7-3.5-42.8,2.4-60.8,16.4c-1.3,1-2.5,2.2-4.3,2.4c-0.7-0.5-1.5-0.8-2-1.4
	c-13.2-15.6-26.6-31-39.2-47.2c-1.7-2.2-3.2-4.8-6.1-5.6c-3.7-2.3-4.8,0.6-5.7,3.1c-1.9,5-2.7,10.3-3,15.7
	c-2.3,33.7,3.2,66.1,17,96.9c3.9,8.6,6.5,16.9,3.9,26.3c-0.4,1.6-0.3,3.3-0.3,5c-0.1,5.2,0.5,5.6,5.4,3.3c7.1-3.3,7.2-3.3,11.4,3.2
	c15.5,23.7,35.2,43.4,57.2,60.9c2.6,2.1,4.2,4.4,5.1,7.6c3.7,13.6,6.6,27.6,13.2,40.3c0.7,1.4,0.9,3.2,1,4.8
	c1,14.8,1.8,29.6,2.8,44.4c1.4,20.1,3.4,40.2,9.9,59.5c2.6,7.7,1.2,15-3.5,21.3c-5.1,6.9-7.8,14.7-9.7,22.8
	c-1.2,5.2-1.4,10.6-0.1,15.9c2.2,9.3,9.6,12.6,17.9,14.5c22.7,5.4,45.5,10.5,68.8,12.2c11,0.8,22,1.1,32.9-0.9
	c4.5-0.8,8-2.4,9.3-7.5c2.5-10.4-1.2-19.5-10.8-24.4c-15-7.6-30.6-14-47.1-17.6c-2.3-0.5-4.1-1.4-5-3.6c-2.7-6.9-3.9-13.9-0.6-20.9
	c1.7-3.6,2.4-7.2,2.8-11.1c1.4-12.9,2.8-25.8,4.3-38.7c0.2-1.4-0.1-3.3,1.6-3.9c1.4-0.5,2.3,1.1,3.1,2.1c3,3.8,5.9,7.7,8.7,11.5
	c2.5,3.4,2.6,6.3-0.6,9.6c-8.8,9.1-11.7,20.2-9.9,32.7c0.8,5.6,3.8,9.1,9.1,10.7c7.5,2.1,15,4.5,22.6,6.2c25,5.8,50.1,9,75.8,5.4
	c6.9-1,10.5-3.7,11.7-10.3c2.3-12.6-0.3-19-9.9-23.1c-14.5-6.2-28.7-13.4-43.6-18.8c-2.4-0.9-4.3-1.9-4.6-4.6
	c-0.6-5.8-2-11.6-1.1-17.4c1.3-9.4-1.6-17.8-6.7-24.9c-3.8-5.4-6.1-11.3-8.9-17.1c-2.6-5.3-3.4-11.6-7.6-16.1
	c-0.2-3.8-2.3-7.3,0.1-11.5c6.2-10.8,11.3-22.3,17.8-32.9c14.6-24,29-48.1,40.5-73.8C406.1,253,410.3,245.2,412.1,236.5z"/>
<path fill="#3878AA" d="M174.7,158.6c1.8-0.2,3-1.4,4.3-2.4c18-14,38.1-19.8,60.8-16.4c7.6,1.2,15.3,0.5,22.9-0.3
	c2.3-0.3,4-1.3,5.4-3.1c15.4-21,35.6-36.7,56.8-51.1c5.7-3.9,8.4-8.2,8.8-14.9c0.6-9.7,3.7-18.9,7-28c0.7-1.9,1.5-3.7,3.3-4.8
	c-2.4,12.4-4.1,24.8-2.6,38.2c6.8-3.2,13.3-5.5,19.2-9.2c25.4-7.1,51.4-8.7,77.6-8c9,0.2,17.9,0.6,26.9,1.2
	c8.7,0.5,12.5,5.5,10.9,14.1c-0.4,1.9-0.9,3.9-1.8,5.7c-8.4,15.7-13.9,32.7-20.8,49.1c-1.6-0.3-2.8,0.5-4.2,1.1
	c-30.2,14.1-56.9,33.1-80.2,57c-23.7,24.3-42.5,51.9-49.7,85.2c-8.6,39.4-11.2,79.5-6.8,119.8c0.6,5.9,3.4,10.3,8.8,12.2
	c5.5,2,9.1-1.8,12.3-5.6c4.8-5.6,7.6-12.4,10.6-19.1c4.2,4.6,5,10.8,7.6,16.1c2.9,5.8,5.1,11.7,8.9,17.1c5.1,7.2,8,15.6,6.7,24.9
	c-0.8,5.8,0.5,11.6,1.1,17.4c0.3,2.7,2.2,3.8,4.6,4.6c14.9,5.4,29,12.6,43.6,18.8c9.6,4.1,12.2,10.5,9.9,23.1
	c-1.2,6.6-4.9,9.4-11.7,10.3c-25.7,3.6-50.8,0.4-75.8-5.4c-7.6-1.8-15.1-4.1-22.6-6.2c-5.4-1.5-8.3-5.1-9.1-10.7
	c-1.8-12.5,1.1-23.5,9.9-32.7c3.3-3.4,3.1-6.3,0.6-9.6c-2.9-3.9-5.7-7.8-8.7-11.5c-0.8-1-1.7-2.6-3.1-2.1c-1.7,0.5-1.4,2.5-1.6,3.9
	c-1.5,12.9-2.9,25.8-4.3,38.7c-0.4,3.8-1.1,7.5-2.8,11.1c-3.3,7-2,14,0.6,20.9c0.9,2.2,2.7,3.1,5,3.6c16.5,3.6,32.1,10,47.1,17.6
	c9.6,4.9,13.3,13.9,10.8,24.4c-1.2,5.2-4.8,6.7-9.3,7.5c-10.9,1.9-21.9,1.7-32.9,0.9c-23.3-1.7-46.1-6.8-68.8-12.2
	c-8.3-2-15.7-5.2-17.9-14.5c-1.3-5.2-1.1-10.6,0.1-15.9c1.9-8.1,4.6-15.9,9.7-22.8c4.7-6.3,6.1-13.6,3.5-21.3
	c-6.4-19.3-8.5-39.3-9.9-59.5c-1-14.8-1.8-29.6-2.8-44.4c-0.1-1.6-0.3-3.4-1-4.8c-6.6-12.7-9.5-26.6-13.2-40.3
	c-0.9-3.2-2.4-5.5-5.1-7.6c-22.1-17.5-41.8-37.2-57.2-60.9c-4.3-6.5-4.3-6.5-11.4-3.2c-4.9,2.2-5.5,1.9-5.4-3.3c0-1.7-0.1-3.4,0.3-5
	c2.6-9.4-0.1-17.7-3.9-26.3c-13.8-30.8-19.3-63.2-17-96.9c0.4-5.3,1.1-10.6,3-15.7c0.9-2.5,2.1-5.3,5.7-3.1c-1.7,1.1-2,3-2.3,4.8
	c-0.8,4.5-0.7,9-0.1,13.4c4.2,35.1,13.1,69,27.6,101.3c14.9,33.2,34.4,63.2,63.8,85.6c12.6,9.6,25.6,18.7,40.5,24.3
	c2.2,0.8,4.2,1.7,6.5-0.3c12.6-10.8,24.1-22.5,31.4-37.7c3.7-7.6,5.6-15.7,3.4-24.2c-0.6-2.2-1.4-3.4-4-3.1
	c-6.5,0.8-12.5-1-18.4-3.6c-10.8-4.9-20.1-11.9-27.9-20.7c-24.1-27.4-47.9-55-71.9-82.5C175.3,160.8,175.1,159.7,174.7,158.6z
	 M284.7,174.2c11.1,8,24,5,31.2-6c7.3-11.3,5.1-25.5-6-32.1c5.2,9.5,4.4,18.3-0.6,26.5C304,171.2,296.5,175.9,284.7,174.2z
	 M304,142.3c-0.5-2.7-1.9-4.7-4.8-4.7c-2.9,0-4.6,1.9-4.6,4.7c0,3,1.9,4.6,4.7,4.6C302.2,147.1,303.6,145.1,304,142.3z"/>
<path fill="#FBFCFE" d="M174.7,158.6c0.3,1.1,0.6,2.2,1.4,3.1c24,27.5,47.8,55.1,71.9,82.5c7.8,8.8,17.1,15.8,27.9,20.7
	c5.9,2.6,11.9,4.4,18.4,3.6c2.7-0.3,3.5,0.9,4,3.1c2.1,8.6,0.2,16.6-3.4,24.2c-7.3,15.2-18.8,26.9-31.4,37.7c-2.3,2-4.3,1.1-6.5,0.3
	c-15-5.6-27.9-14.7-40.5-24.3c-29.5-22.4-48.9-52.4-63.8-85.6c-14.5-32.3-23.4-66.2-27.6-101.3c-0.5-4.5-0.7-9,0.1-13.4
	c0.3-1.8,0.6-3.6,2.3-4.8c3,0.8,4.4,3.4,6.1,5.6c12.5,16.2,26,31.6,39.2,47.2C173.3,157.8,174.1,158.2,174.7,158.6z"/>
<path fill="#FBFCFE" d="M344.2,379.2c-3,6.7-5.8,13.4-10.6,19.1c-3.2,3.7-6.8,7.5-12.3,5.6c-5.5-2-8.2-6.4-8.8-12.2
	c-4.3-40.3-1.7-80.4,6.8-119.8c7.2-33.4,26-60.9,49.7-85.2c23.3-23.9,49.9-42.9,80.2-57c1.4-0.6,2.6-1.4,4.2-1.1
	c-10.8,27.9-21.6,55.7-32.4,83.6c-0.4,0.9-0.5,1.9-0.7,2.9c-4.8,0-7.9,2.8-7.4,6.8c0.2,1.9-0.4,3.3-1.9,4.2c-1.6,1-3.3,0.7-4.5-0.8
	c-3.1-3.8-3.9-2.4-4,1.6c0,1.7-1,3.2-2.9,3.6c-1.4,0.3-2.8-0.1-3.5-1.4c-2.4-4.2-4.1-3.4-5.7,0.6c-0.6,1.6-1.8,2.9-3.7,2.9
	c-2.2,0-2.2-1.6-2.2-3.1c0-0.8-0.4-1.3-1.2-1.2c-0.9,0.1-1.2,0.8-1.6,1.6c-3.5,7.5-6.6,7.8-11.6,1.2c-1.9,1-1.1,2.9-1.6,4.4
	c-1.2,3.7-4.9,4.7-7.8,2c-0.9-0.9-1-3.5-3.1-2.1c-1.7,1.1,0.1,2.7,0.4,4c0.6,2.6,0.6,5.3-2.1,6.5c-2.5,1.1-5.1,0.8-7.4-1.4
	c-0.9-0.9-0.1-3.7-2.5-2.9c-2,0.7-0.5,2.6-0.6,4c-0.1,1.9,0,3.7-1.9,4.8c-1.9,1.1-3.5,0.7-4.7-1.2c-0.7-1.2-1.6-1-2.4-0.2
	c-3.7,3.4-6.9,7.3-9.9,13.2c10.2-4.9,19.2-8.4,28.8-10.4c2.5-0.5,4.8-0.6,5.3-4c0.3-1.9,2.2-3.5,4.5-3.4c2.3,0.1,2.7,2.2,3,4
	c0.1,0.6,0.1,1.4,0.5,1.3c1.4-0.3,1.4-1,1.4-1.6c0.2-3.6,2.6-5.5,5.7-5.9c3.6-0.4,2.7,2.9,3,5c0.1,0.7,0.3,1.3,1.1,1.4
	c1,0.1,1.5-0.6,1.4-1.5c-0.2-1.4-0.1-2.7,0.6-3.8c0.9-1.4,1.9-2.8,3.8-2.9c1.5,0,1.8,1.2,2.1,2.3c0.4,1.2-1,3.4,1.6,3.4
	c2.3,0,1.5-2,1.7-3.4c0.2-1.8,1.2-3.2,2.9-3.7c2.1-0.6,2.4,1,2.6,2.6c0.1,1.1,0.8,1.3,1.8,1.2c1.1-0.2,1.9-0.7,2-1.9
	c0.1-1.5,0-3,0.4-4.5c0.3-1.6,1.4-2.7,3.1-2.8c1.3-0.1,3.1,0,3.3,1.5c0.6,4.1,2.9,2.1,4.9,1.6c-1.8,8.7-6,16.5-9.6,24.5
	c-11.4,25.7-25.9,49.8-40.5,73.8c-6.5,10.6-11.6,22.1-17.8,32.9C341.9,371.9,344,375.4,344.2,379.2z"/>
<path fill="#3878AA" d="M412.1,236.5c-1.9,0.5-4.2,2.5-4.9-1.6c-0.2-1.5-2-1.5-3.3-1.5c-1.7,0.1-2.8,1.2-3.1,2.8
	c-0.3,1.4-0.2,3-0.4,4.5c-0.1,1.2-1,1.7-2,1.9c-0.9,0.2-1.6-0.1-1.8-1.2c-0.2-1.6-0.5-3.2-2.6-2.6c-1.7,0.5-2.7,1.9-2.9,3.7
	c-0.1,1.4,0.6,3.3-1.7,3.4c-2.5,0-1.2-2.2-1.6-3.4c-0.3-1.1-0.6-2.4-2.1-2.3c-1.9,0-2.9,1.4-3.8,2.9c-0.7,1.2-0.9,2.5-0.6,3.8
	c0.2,1-0.4,1.6-1.4,1.5c-0.8-0.1-1-0.6-1.1-1.4c-0.3-2.1,0.6-5.4-3-5c-3.1,0.4-5.5,2.3-5.7,5.9c0,0.6,0,1.4-1.4,1.6
	c-0.4,0-0.4-0.7-0.5-1.3c-0.4-1.8-0.8-3.9-3-4c-2.2-0.1-4.1,1.5-4.5,3.4c-0.6,3.4-2.9,3.5-5.3,4c-9.6,2-18.6,5.6-28.8,10.4
	c3-5.9,6.1-9.7,9.9-13.2c0.8-0.8,1.7-1,2.4,0.2c1.1,1.9,2.7,2.4,4.7,1.2c1.9-1.1,1.8-3,1.9-4.8c0.1-1.4-1.5-3.3,0.6-4
	c2.4-0.9,1.5,1.9,2.5,2.9c2.2,2.2,4.9,2.5,7.4,1.4c2.7-1.2,2.7-3.8,2.1-6.5c-0.3-1.3-2.1-2.9-0.4-4c2.1-1.4,2.1,1.3,3.1,2.1
	c2.9,2.7,6.6,1.7,7.8-2c0.5-1.5-0.3-3.4,1.6-4.4c5,6.7,8.1,6.4,11.6-1.2c0.4-0.8,0.7-1.6,1.6-1.6c0.8-0.1,1.2,0.5,1.2,1.2
	c0,1.6,0.1,3.1,2.2,3.1c1.9,0,3.1-1.3,3.7-2.9c1.5-4,3.2-4.8,5.7-0.6c0.7,1.2,2.1,1.7,3.5,1.4c1.9-0.4,2.9-1.9,2.9-3.6
	c0.1-4,0.9-5.4,4-1.6c1.2,1.5,2.8,1.8,4.5,0.8c1.6-0.9,2.1-2.3,1.9-4.2c-0.4-4,2.7-6.8,7.4-6.8c-1.5,5-2.9,10.1-4.6,15.1
	C414.9,232.5,414.3,235,412.1,236.5z"/>
<path fill="#FBFCFE" d="M360.7,66.6c-5.9,3.7-12.4,6.1-19.2,9.2c-1.5-13.4,0.2-25.8,2.6-38.2c2.3-0.8,2.8,1.1,3.8,2.4
	C354.1,47.9,357.9,57,360.7,66.6z"/>
<path fill="#FBFCFE" d="M284.7,174.2c11.8,1.7,19.3-3,24.6-11.6c5.1-8.3,5.9-17,0.6-26.5c11,6.6,13.3,20.9,6,32.1
	C308.7,179.3,295.8,182.2,284.7,174.2z"/>
<path fill="#FBFCFE" d="M304,142.3c-0.4,2.8-1.8,4.8-4.8,4.7c-2.8,0-4.7-1.6-4.7-4.6c0-2.9,1.7-4.7,4.6-4.7
	C302.1,137.6,303.5,139.6,304,142.3z"/>
</svg>
